<?xml version="1.0" encoding="utf-8"?>
<!-- Generator: Adobe Illustrator 17.0.0, SVG Export Plug-In . SVG Version: 6.00 Build 0)  -->
<!DOCTYPE svg PUBLIC "-//W3C//DTD SVG 1.1//EN" "http://www.w3.org/Graphics/SVG/1.1/DTD/svg11.dtd">
<svg version="1.1"
	 id="图层_1" xmlns:sodipodi="http://sodipodi.sourceforge.net/DTD/sodipodi-0.dtd" xmlns:inkscape="http://www.inkscape.org/namespaces/inkscape" xmlns:svg="http://www.w3.org/2000/svg" xmlns:dc="http://purl.org/dc/elements/1.1/" xmlns:cc="http://creativecommons.org/ns#" xmlns:rdf="http://www.w3.org/1999/02/22-rdf-syntax-ns#" inkscape:version="0.48.4 r9939" sodipodi:docname="scale-slider-ver.svg"
	 xmlns="http://www.w3.org/2000/svg" xmlns:xlink="http://www.w3.org/1999/xlink" x="0px" y="0px" width="20px" height="20px"
	 viewBox="0 0 20 20" enable-background="new 0 0 20 20" xml:space="preserve">
<sodipodi:namedview  inkscape:cx="8" objecttolerance="10" showgrid="false" inkscape:zoom="14.75" borderopacity="1" inkscape:cy="8" bordercolor="#666666" pagecolor="#ffffff" guidetolerance="10" gridtolerance="10" id="namedview22" inkscape:pageopacity="0" inkscape:window-y="0" inkscape:window-maximized="1" inkscape:pageshadow="2" inkscape:current-layer="图层_1" inkscape:window-x="0" inkscape:window-width="1920" inkscape:window-height="1117">
	</sodipodi:namedview>
<g opacity="0.6">
	<g id="g9">
		<path fill="#C8E56E" d="M2.549,15.451c0,1.105,0.895,2,2,2h10.902c1.105,0,2-0.895,2-2V4.549c0-1.105-0.895-2-2-2H4.549
			c-1.105,0-2,0.895-2,2V15.451z"/>
	</g>
	<path id="path18" fill="none" stroke="#94B53A" stroke-width="0.977" stroke-miterlimit="10" d="M1.618,14.382c0,2.209,1.791,4,4,4
		h8.764c2.209,0,4-1.791,4-4V5.618c0-2.209-1.791-4-4-4H5.618c-2.209,0-4,1.791-4,4V14.382z"/>
	<path id="circle20" fill="none" stroke="#EDFFBD" stroke-width="0.977" stroke-miterlimit="10" d="M2.549,14.451
		c0,1.657,1.343,3,3,3h8.902c1.657,0,3-1.343,3-3V5.549c0-1.657-1.343-3-3-3H5.549c-1.657,0-3,1.343-3,3V14.451z"/>
</g>
</svg>
