<?xml version="1.0" encoding="utf-8"?>
<!-- Generator: Adobe Illustrator 17.0.0, SVG Export Plug-In . SVG Version: 6.00 Build 0)  -->
<!DOCTYPE svg PUBLIC "-//W3C//DTD SVG 1.1//EN" "http://www.w3.org/Graphics/SVG/1.1/DTD/svg11.dtd">
<svg version="1.1" id="图层_1" xmlns="http://www.w3.org/2000/svg" xmlns:xlink="http://www.w3.org/1999/xlink" x="0px" y="0px"
	 width="20px" height="20px" viewBox="0 0 20 20" enable-background="new 0 0 20 20" xml:space="preserve">
<circle fill="#A0BA31" cx="10" cy="10" r="7"/>
<g>
	<line fill="none" stroke="#FFFFFF" stroke-width="2" stroke-miterlimit="10" x1="5" y1="10" x2="15" y2="10"/>
	<path fill="none" stroke="#FFFFFF" stroke-width="2" stroke-miterlimit="10" d="M10,5"/>
	<path fill="none" stroke="#FFFFFF" stroke-width="2" stroke-miterlimit="10" d="M10,15"/>
</g>
<circle fill="#AFD362" cx="-7" cy="-15.375" r="7"/>
<g>
	<line fill="none" stroke="#FFFFFF" stroke-width="2" stroke-miterlimit="10" x1="-12" y1="-15.375" x2="-2" y2="-15.375"/>
	<path fill="none" stroke="#FFFFFF" stroke-width="2" stroke-miterlimit="10" d="M-7-20.375"/>
	<path fill="none" stroke="#FFFFFF" stroke-width="2" stroke-miterlimit="10" d="M-7-10.375"/>
</g>
<circle fill="#AFD362" cx="7" cy="-14.75" r="7"/>
<g>
	<line fill="none" stroke="#FFFFFF" stroke-width="2" stroke-miterlimit="10" x1="2" y1="-14.75" x2="12" y2="-14.75"/>
	<line fill="none" stroke="#FFFFFF" stroke-width="2" stroke-miterlimit="10" x1="7" y1="-9.75" x2="7" y2="-19.75"/>
</g>
<circle fill="#E8D24F" cx="21" cy="-15.375" r="7"/>
<circle fill="#DBE27F" cx="42.827" cy="-15.688" r="7"/>
<circle fill="#DBE27F" cx="56.827" cy="-15.062" r="7"/>
<circle fill="#DBE27F" cx="70.827" cy="-15.688" r="7"/>
<g>
	<line fill="none" stroke="#FFFFFF" stroke-width="2" stroke-miterlimit="10" x1="17.464" y1="-11.839" x2="24.536" y2="-18.911"/>
	<line fill="none" stroke="#FFFFFF" stroke-width="2" stroke-miterlimit="10" x1="24.536" y1="-11.839" x2="17.464" y2="-18.911"/>
</g>
<circle fill="#A0BA31" cx="-7.625" cy="-30.875" r="7"/>
<g>
	<line fill="none" stroke="#FFFFFF" stroke-width="2" stroke-miterlimit="10" x1="-12.625" y1="-30.875" x2="-2.625" y2="-30.875"/>
	<path fill="none" stroke="#FFFFFF" stroke-width="2" stroke-miterlimit="10" d="M-7.625-35.875"/>
	<path fill="none" stroke="#FFFFFF" stroke-width="2" stroke-miterlimit="10" d="M-7.625-25.875"/>
</g>
<circle fill="#A0BA31" cx="6.375" cy="-30.25" r="7"/>
<g>
	<line fill="none" stroke="#FFFFFF" stroke-width="2" stroke-miterlimit="10" x1="1.375" y1="-30.25" x2="11.375" y2="-30.25"/>
	<line fill="none" stroke="#FFFFFF" stroke-width="2" stroke-miterlimit="10" x1="6.375" y1="-25.25" x2="6.375" y2="-35.25"/>
</g>
<circle fill="#DD9F33" cx="20.375" cy="-30.875" r="7"/>
<g>
	<line fill="none" stroke="#FFFFFF" stroke-width="2" stroke-miterlimit="10" x1="16.839" y1="-27.339" x2="23.911" y2="-34.411"/>
	<line fill="none" stroke="#FFFFFF" stroke-width="2" stroke-miterlimit="10" x1="23.911" y1="-27.339" x2="16.839" y2="-34.411"/>
</g>
</svg>
