<?xml version="1.0" encoding="utf-8"?>
<!-- Generator: Adobe Illustrator 17.0.0, SVG Export Plug-In . SVG Version: 6.00 Build 0)  -->
<!DOCTYPE svg PUBLIC "-//W3C//DTD SVG 1.1//EN" "http://www.w3.org/Graphics/SVG/1.1/DTD/svg11.dtd">
<svg version="1.1" id="图层_1" xmlns="http://www.w3.org/2000/svg" xmlns:xlink="http://www.w3.org/1999/xlink" x="0px" y="0px"
	 width="20px" height="20px" viewBox="0 0 20 20" enable-background="new 0 0 20 20" xml:space="preserve">
<g>
	<circle fill="#AFD362" cx="161.875" cy="27.375" r="7"/>
	<g>
		<line fill="none" stroke="#FFFFFF" stroke-width="2" stroke-miterlimit="10" x1="156.875" y1="27.375" x2="166.875" y2="27.375"/>
		<path fill="none" stroke="#FFFFFF" stroke-width="2" stroke-miterlimit="10" d="M161.875,22.375"/>
		<path fill="none" stroke="#FFFFFF" stroke-width="2" stroke-miterlimit="10" d="M161.875,32.375"/>
	</g>
</g>
<g>
	<circle fill="#AFD362" cx="10" cy="10" r="7"/>
	<g>
		<line fill="none" stroke="#FFFFFF" stroke-width="2" stroke-miterlimit="10" x1="5" y1="10" x2="15" y2="10"/>
		<path fill="none" stroke="#FFFFFF" stroke-width="2" stroke-miterlimit="10" d="M10,5"/>
		<path fill="none" stroke="#FFFFFF" stroke-width="2" stroke-miterlimit="10" d="M10,15"/>
	</g>
</g>
<circle fill="#AFD362" cx="175.875" cy="28" r="7"/>
<g>
	<line fill="none" stroke="#FFFFFF" stroke-width="2" stroke-miterlimit="10" x1="170.875" y1="28" x2="180.875" y2="28"/>
	<line fill="none" stroke="#FFFFFF" stroke-width="2" stroke-miterlimit="10" x1="175.875" y1="33" x2="175.875" y2="23"/>
</g>
<circle fill="#E8D24F" cx="189.875" cy="27.375" r="7"/>
<circle fill="#DBE27F" cx="211.702" cy="27.062" r="7"/>
<circle fill="#DBE27F" cx="225.702" cy="27.688" r="7"/>
<circle fill="#DBE27F" cx="239.702" cy="27.062" r="7"/>
<g>
	<line fill="none" stroke="#FFFFFF" stroke-width="2" stroke-miterlimit="10" x1="186.339" y1="30.911" x2="193.411" y2="23.839"/>
	<line fill="none" stroke="#FFFFFF" stroke-width="2" stroke-miterlimit="10" x1="193.411" y1="30.911" x2="186.339" y2="23.839"/>
</g>
<circle fill="#A0BA31" cx="161.25" cy="11.875" r="7"/>
<g>
	<line fill="none" stroke="#FFFFFF" stroke-width="2" stroke-miterlimit="10" x1="156.25" y1="11.875" x2="166.25" y2="11.875"/>
	<path fill="none" stroke="#FFFFFF" stroke-width="2" stroke-miterlimit="10" d="M161.25,6.875"/>
	<path fill="none" stroke="#FFFFFF" stroke-width="2" stroke-miterlimit="10" d="M161.25,16.875"/>
</g>
<circle fill="#A0BA31" cx="175.25" cy="12.5" r="7"/>
<g>
	<line fill="none" stroke="#FFFFFF" stroke-width="2" stroke-miterlimit="10" x1="170.25" y1="12.5" x2="180.25" y2="12.5"/>
	<line fill="none" stroke="#FFFFFF" stroke-width="2" stroke-miterlimit="10" x1="175.25" y1="17.5" x2="175.25" y2="7.5"/>
</g>
<circle fill="#A0BA31" cx="173.25" cy="-14" r="7"/>
<circle fill="#DD9F33" cx="189.25" cy="11.875" r="7"/>
<g>
	<line fill="none" stroke="#FFFFFF" stroke-width="2" stroke-miterlimit="10" x1="185.714" y1="15.411" x2="192.786" y2="8.339"/>
	<line fill="none" stroke="#FFFFFF" stroke-width="2" stroke-miterlimit="10" x1="192.786" y1="15.411" x2="185.714" y2="8.339"/>
</g>
<rect x="170.25" y="-17" fill="none" stroke="#FFFFFF" stroke-width="2" stroke-miterlimit="10" width="6" height="6"/>
<g>
	<circle fill="#AFD362" cx="203" cy="-7" r="7"/>
	<rect x="200" y="-10" fill="none" stroke="#FFFFFF" stroke-width="2" stroke-miterlimit="10" width="6" height="6"/>
</g>
</svg>
