<?xml version="1.0" encoding="utf-8"?>
<!-- Generator: Adobe Illustrator 17.0.0, SVG Export Plug-In . SVG Version: 6.00 Build 0)  -->
<!DOCTYPE svg PUBLIC "-//W3C//DTD SVG 1.1//EN" "http://www.w3.org/Graphics/SVG/1.1/DTD/svg11.dtd">
<svg version="1.1" id="图层_1" xmlns="http://www.w3.org/2000/svg" xmlns:xlink="http://www.w3.org/1999/xlink" x="0px" y="0px"
	 width="20px" height="20px" viewBox="0 0 20 20" enable-background="new 0 0 20 20" xml:space="preserve">
<circle fill="#AFD362" cx="49.327" cy="94.447" r="7"/>
<g>
	<line fill="none" stroke="#FFFFFF" stroke-width="2" stroke-miterlimit="10" x1="44.327" y1="94.447" x2="54.327" y2="94.447"/>
	<path fill="none" stroke="#FFFFFF" stroke-width="2" stroke-miterlimit="10" d="M49.327,89.447"/>
	<path fill="none" stroke="#FFFFFF" stroke-width="2" stroke-miterlimit="10" d="M49.327,99.447"/>
</g>
<circle fill="#AFD362" cx="63.327" cy="95.072" r="7"/>
<g>
	<line fill="none" stroke="#FFFFFF" stroke-width="2" stroke-miterlimit="10" x1="58.327" y1="95.072" x2="68.327" y2="95.072"/>
	<line fill="none" stroke="#FFFFFF" stroke-width="2" stroke-miterlimit="10" x1="63.327" y1="100.072" x2="63.327" y2="90.072"/>
</g>
<circle fill="#E8D24F" cx="77.327" cy="94.447" r="7"/>
<circle fill="#DBE27F" cx="99.154" cy="94.135" r="7"/>
<circle fill="#DBE27F" cx="113.154" cy="94.76" r="7"/>
<circle fill="#DBE27F" cx="127.154" cy="94.135" r="7"/>
<g>
	<line fill="none" stroke="#FFFFFF" stroke-width="2" stroke-miterlimit="10" x1="73.791" y1="97.983" x2="80.863" y2="90.912"/>
	<line fill="none" stroke="#FFFFFF" stroke-width="2" stroke-miterlimit="10" x1="80.863" y1="97.983" x2="73.791" y2="90.912"/>
</g>
<circle fill="#A0BA31" cx="48.702" cy="78.947" r="7"/>
<g>
	<line fill="none" stroke="#FFFFFF" stroke-width="2" stroke-miterlimit="10" x1="43.702" y1="78.947" x2="53.702" y2="78.947"/>
	<path fill="none" stroke="#FFFFFF" stroke-width="2" stroke-miterlimit="10" d="M48.702,73.947"/>
	<path fill="none" stroke="#FFFFFF" stroke-width="2" stroke-miterlimit="10" d="M48.702,83.947"/>
</g>
<circle fill="#A0BA31" cx="62.702" cy="79.572" r="7"/>
<g>
	<line fill="none" stroke="#FFFFFF" stroke-width="2" stroke-miterlimit="10" x1="57.702" y1="79.572" x2="67.702" y2="79.572"/>
	<line fill="none" stroke="#FFFFFF" stroke-width="2" stroke-miterlimit="10" x1="62.702" y1="84.572" x2="62.702" y2="74.572"/>
</g>
<circle fill="#A0BA31" cx="60.702" cy="53.072" r="7"/>
<circle fill="#DD9F33" cx="76.702" cy="78.947" r="7"/>
<g>
	<line fill="none" stroke="#FFFFFF" stroke-width="2" stroke-miterlimit="10" x1="73.166" y1="82.483" x2="80.238" y2="75.412"/>
	<line fill="none" stroke="#FFFFFF" stroke-width="2" stroke-miterlimit="10" x1="80.238" y1="82.483" x2="73.166" y2="75.412"/>
</g>
<rect x="57.702" y="50.072" fill="none" stroke="#FFFFFF" stroke-width="2" stroke-miterlimit="10" width="6" height="6"/>
<g>
	<circle fill="#AFD362" cx="90.452" cy="60.072" r="7"/>
	<rect x="87.452" y="57.072" fill="none" stroke="#FFFFFF" stroke-width="2" stroke-miterlimit="10" width="6" height="6"/>
</g>
<circle fill="none" stroke="#AFD362" stroke-miterlimit="10" cx="10" cy="9" r="6.5"/>
</svg>
