<?xml version="1.0" encoding="utf-8"?>
<!-- Generator: Adobe Illustrator 17.0.0, SVG Export Plug-In . SVG Version: 6.00 Build 0)  -->
<!DOCTYPE svg PUBLIC "-//W3C//DTD SVG 1.1//EN" "http://www.w3.org/Graphics/SVG/1.1/DTD/svg11.dtd">
<svg version="1.1" id="图层_1" xmlns="http://www.w3.org/2000/svg" xmlns:xlink="http://www.w3.org/1999/xlink" x="0px" y="0px"
	 width="20px" height="20px" viewBox="0 0 20 20" enable-background="new 0 0 20 20" xml:space="preserve">
<circle fill="#AFD362" cx="27.875" cy="99.375" r="7"/>
<g>
	<line fill="none" stroke="#FFFFFF" stroke-width="2" stroke-miterlimit="10" x1="22.875" y1="99.375" x2="32.875" y2="99.375"/>
	<path fill="none" stroke="#FFFFFF" stroke-width="2" stroke-miterlimit="10" d="M27.875,94.375"/>
	<path fill="none" stroke="#FFFFFF" stroke-width="2" stroke-miterlimit="10" d="M27.875,104.375"/>
</g>
<circle fill="#AFD362" cx="41.875" cy="100" r="7"/>
<g>
	<line fill="none" stroke="#FFFFFF" stroke-width="2" stroke-miterlimit="10" x1="36.875" y1="100" x2="46.875" y2="100"/>
	<line fill="none" stroke="#FFFFFF" stroke-width="2" stroke-miterlimit="10" x1="41.875" y1="105" x2="41.875" y2="95"/>
</g>
<circle fill="#E8D24F" cx="55.875" cy="99.375" r="7"/>
<circle fill="#DBE27F" cx="77.702" cy="99.062" r="7"/>
<circle fill="#DBE27F" cx="91.702" cy="99.688" r="7"/>
<circle fill="#DBE27F" cx="105.702" cy="99.062" r="7"/>
<g>
	<line fill="none" stroke="#FFFFFF" stroke-width="2" stroke-miterlimit="10" x1="52.339" y1="102.911" x2="59.411" y2="95.839"/>
	<line fill="none" stroke="#FFFFFF" stroke-width="2" stroke-miterlimit="10" x1="59.411" y1="102.911" x2="52.339" y2="95.839"/>
</g>
<g>
	<circle fill="#A0BA31" cx="27.25" cy="83.875" r="7"/>
	<g>
		<line fill="none" stroke="#FFFFFF" stroke-width="2" stroke-miterlimit="10" x1="22.25" y1="83.875" x2="32.25" y2="83.875"/>
		<path fill="none" stroke="#FFFFFF" stroke-width="2" stroke-miterlimit="10" d="M27.25,78.875"/>
		<path fill="none" stroke="#FFFFFF" stroke-width="2" stroke-miterlimit="10" d="M27.25,88.875"/>
	</g>
</g>
<g>
	<circle fill="#A0BA31" cx="10" cy="10" r="7"/>
	<g>
		<line fill="none" stroke="#FFFFFF" stroke-width="2" stroke-miterlimit="10" x1="5" y1="10" x2="15" y2="10"/>
		<path fill="none" stroke="#FFFFFF" stroke-width="2" stroke-miterlimit="10" d="M10,5"/>
		<path fill="none" stroke="#FFFFFF" stroke-width="2" stroke-miterlimit="10" d="M10,15"/>
	</g>
</g>
<circle fill="#A0BA31" cx="41.25" cy="84.5" r="7"/>
<g>
	<line fill="none" stroke="#FFFFFF" stroke-width="2" stroke-miterlimit="10" x1="36.25" y1="84.5" x2="46.25" y2="84.5"/>
	<line fill="none" stroke="#FFFFFF" stroke-width="2" stroke-miterlimit="10" x1="41.25" y1="89.5" x2="41.25" y2="79.5"/>
</g>
<circle fill="#A0BA31" cx="39.25" cy="58" r="7"/>
<circle fill="#DD9F33" cx="55.25" cy="83.875" r="7"/>
<g>
	<line fill="none" stroke="#FFFFFF" stroke-width="2" stroke-miterlimit="10" x1="51.714" y1="87.411" x2="58.786" y2="80.339"/>
	<line fill="none" stroke="#FFFFFF" stroke-width="2" stroke-miterlimit="10" x1="58.786" y1="87.411" x2="51.714" y2="80.339"/>
</g>
<rect x="36.25" y="55" fill="none" stroke="#FFFFFF" stroke-width="2" stroke-miterlimit="10" width="6" height="6"/>
<g>
	<circle fill="#AFD362" cx="69" cy="65" r="7"/>
	<rect x="66" y="62" fill="none" stroke="#FFFFFF" stroke-width="2" stroke-miterlimit="10" width="6" height="6"/>
</g>
</svg>
