<?xml version="1.0" encoding="utf-8"?>
<!-- Generator: Adobe Illustrator 17.0.0, SVG Export Plug-In . SVG Version: 6.00 Build 0)  -->
<!DOCTYPE svg PUBLIC "-//W3C//DTD SVG 1.1//EN" "http://www.w3.org/Graphics/SVG/1.1/DTD/svg11.dtd">
<svg version="1.1" id="图层_1" xmlns="http://www.w3.org/2000/svg" xmlns:xlink="http://www.w3.org/1999/xlink" x="0px" y="0px"
	 width="20px" height="20px" viewBox="0 0 20 20" enable-background="new 0 0 20 20" xml:space="preserve">
<circle fill="#AFD362" cx="158.875" cy="22.375" r="7"/>
<g>
	<line fill="none" stroke="#FFFFFF" stroke-width="2" stroke-miterlimit="10" x1="153.875" y1="22.375" x2="163.875" y2="22.375"/>
	<path fill="none" stroke="#FFFFFF" stroke-width="2" stroke-miterlimit="10" d="M158.875,17.375"/>
	<path fill="none" stroke="#FFFFFF" stroke-width="2" stroke-miterlimit="10" d="M158.875,27.375"/>
</g>
<circle fill="#AFD362" cx="172.875" cy="23" r="7"/>
<g>
	<line fill="none" stroke="#FFFFFF" stroke-width="2" stroke-miterlimit="10" x1="167.875" y1="23" x2="177.875" y2="23"/>
	<line fill="none" stroke="#FFFFFF" stroke-width="2" stroke-miterlimit="10" x1="172.875" y1="28" x2="172.875" y2="18"/>
</g>
<circle fill="#E8D24F" cx="186.875" cy="22.375" r="7"/>
<circle fill="#DBE27F" cx="208.702" cy="22.062" r="7"/>
<circle fill="#DBE27F" cx="222.702" cy="22.688" r="7"/>
<circle fill="#DBE27F" cx="236.702" cy="22.062" r="7"/>
<g>
	<line fill="none" stroke="#FFFFFF" stroke-width="2" stroke-miterlimit="10" x1="183.339" y1="25.911" x2="190.411" y2="18.839"/>
	<line fill="none" stroke="#FFFFFF" stroke-width="2" stroke-miterlimit="10" x1="190.411" y1="25.911" x2="183.339" y2="18.839"/>
</g>
<circle fill="#A0BA31" cx="158.25" cy="6.875" r="7"/>
<g>
	<line fill="none" stroke="#FFFFFF" stroke-width="2" stroke-miterlimit="10" x1="153.25" y1="6.875" x2="163.25" y2="6.875"/>
	<path fill="none" stroke="#FFFFFF" stroke-width="2" stroke-miterlimit="10" d="M158.25,1.875"/>
	<path fill="none" stroke="#FFFFFF" stroke-width="2" stroke-miterlimit="10" d="M158.25,11.875"/>
</g>
<circle fill="#A0BA31" cx="172.25" cy="7.5" r="7"/>
<g>
	<line fill="none" stroke="#FFFFFF" stroke-width="2" stroke-miterlimit="10" x1="167.25" y1="7.5" x2="177.25" y2="7.5"/>
	<line fill="none" stroke="#FFFFFF" stroke-width="2" stroke-miterlimit="10" x1="172.25" y1="12.5" x2="172.25" y2="2.5"/>
</g>
<circle fill="#A0BA31" cx="170.25" cy="-19" r="7"/>
<circle fill="#DD9F33" cx="186.25" cy="6.875" r="7"/>
<g>
	<line fill="none" stroke="#FFFFFF" stroke-width="2" stroke-miterlimit="10" x1="182.714" y1="10.411" x2="189.786" y2="3.339"/>
	<line fill="none" stroke="#FFFFFF" stroke-width="2" stroke-miterlimit="10" x1="189.786" y1="10.411" x2="182.714" y2="3.339"/>
</g>
<rect x="167.25" y="-22" fill="none" stroke="#FFFFFF" stroke-width="2" stroke-miterlimit="10" width="6" height="6"/>
<g>
	<circle fill="#AFD362" cx="200" cy="-12" r="7"/>
	<rect x="197" y="-15" fill="none" stroke="#FFFFFF" stroke-width="2" stroke-miterlimit="10" width="6" height="6"/>
</g>
<circle fill="none" stroke="#AFD362" stroke-miterlimit="10" cx="10" cy="9" r="6.5"/>
</svg>
