/* XPM */ 
static const unsigned char * top_right_xpm[] = {
"4 22 6 1",
" 	c None",
"!	c #3A3A3A",
"#	c black",
"$	c #3A3B39",
"%	c #393939",
"&	c #383838",
"!!  ",
"!!! ",
"!!!$",
"!!!!",
"!!!!",
"!!!!",
"!!%%",
"%%%%",
"%%%%",
"%%%%",
"%%%%",
"%%%%",
"%%%%",
"%%%%",
"%%&&",
"&&&&",
"&&&&",
"&&&&",
"&&&&",
"&&&&",
"&&&&",
"&&&&"};