<?xml version="1.0" encoding="utf-8"?>
<!-- Generator: Adobe Illustrator 17.0.0, SVG Export Plug-In . SVG Version: 6.00 Build 0)  -->
<!DOCTYPE svg PUBLIC "-//W3C//DTD SVG 1.1//EN" "http://www.w3.org/Graphics/SVG/1.1/DTD/svg11.dtd">
<svg version="1.1"
	 id="图层_1" xmlns:svg="http://www.w3.org/2000/svg" xmlns:cc="http://creativecommons.org/ns#" xmlns:sodipodi="http://sodipodi.sourceforge.net/DTD/sodipodi-0.dtd" xmlns:dc="http://purl.org/dc/elements/1.1/" xmlns:rdf="http://www.w3.org/1999/02/22-rdf-syntax-ns#" xmlns:inkscape="http://www.inkscape.org/namespaces/inkscape" sodipodi:docname="checkbox-mixed.svg" inkscape:version="0.48.4 r9939"
	 xmlns="http://www.w3.org/2000/svg" xmlns:xlink="http://www.w3.org/1999/xlink" x="0px" y="0px" width="16px" height="16px"
	 viewBox="0 0 16 16" enable-background="new 0 0 16 16" xml:space="preserve">
<sodipodi:namedview  borderopacity="1" gridtolerance="10" guidetolerance="10" inkscape:cy="8" bordercolor="#666666" inkscape:cx="-15.525424" inkscape:zoom="14.75" pagecolor="#ffffff" objecttolerance="10" showgrid="false" id="namedview21" inkscape:pageopacity="0" inkscape:window-x="0" inkscape:window-y="0" inkscape:window-height="1117" inkscape:window-maximized="1" inkscape:window-width="1920" inkscape:pageshadow="2" inkscape:current-layer="图层_1">
	</sodipodi:namedview>
<g>
	<path fill="#FFFFFF" d="M3.879,1C2.292,1,1,2.369,1,4.051v7.898C1,13.632,2.292,15,3.879,15h8.242C13.709,15,15,13.632,15,11.949
		V4.051C15,2.369,13.708,1,12.12,1H3.879z"/>
	<path opacity="0.6" fill="#ADC64D" enable-background="new    " d="M12.121,16H3.879C1.74,16,0,14.183,0,11.949V4.051
		C0,1.817,1.74,0,3.879,0h8.241C14.26,0,16,1.817,16,4.051v7.898C16,14.183,14.26,16,12.121,16z M3.879,1C2.292,1,1,2.369,1,4.051
		v7.898C1,13.632,2.292,15,3.879,15h8.242C13.709,15,15,13.632,15,11.949V4.051C15,2.369,13.708,1,12.12,1H3.879z"/>
	<path id="path12_1_" fill="#ADC64D" enable-background="new    " d="M3.88,13C3.395,13,3,12.529,3,11.949V4.051
		C3,3.471,3.395,3,3.88,3h8.241C12.598,3,13,3.481,13,4.051v7.896C13,12.529,12.606,13,12.12,13H3.88z"/>
</g>
</svg>
