<?xml version="1.0" encoding="utf-8"?>
<!-- Generator: Adobe Illustrator 17.0.0, SVG Export Plug-In . SVG Version: 6.00 Build 0)  -->
<!DOCTYPE svg PUBLIC "-//W3C//DTD SVG 1.1//EN" "http://www.w3.org/Graphics/SVG/1.1/DTD/svg11.dtd">
<svg version="1.1" id="图层_1" xmlns="http://www.w3.org/2000/svg" xmlns:xlink="http://www.w3.org/1999/xlink" x="0px" y="0px"
	 width="16px" height="16px" viewBox="0 0 16 16" enable-background="new 0 0 16 16" xml:space="preserve">
<g>
	<path fill="#F3F6CD" d="M3.879,1C2.292,1,1,2.369,1,4.051v7.898C1,13.632,2.292,15,3.879,15h8.242C13.709,15,15,13.632,15,11.949
		V4.051C15,2.369,13.708,1,12.12,1H3.879z"/>
	<path opacity="0.6" fill="#ADC64D" enable-background="new    " d="M12.121,16H3.879C1.74,16,0,14.183,0,11.949V4.051
		C0,1.817,1.74,0,3.879,0h8.241C14.26,0,16,1.817,16,4.051v7.898C16,14.183,14.26,16,12.121,16z M3.879,1C2.292,1,1,2.369,1,4.051
		v7.898C1,13.632,2.292,15,3.879,15h8.242C13.709,15,15,13.632,15,11.949V4.051C15,2.369,13.708,1,12.12,1H3.879z"/>
</g>
</svg>
