<?xml version="1.0" encoding="utf-8"?>
<!-- Generator: Adobe Illustrator 17.0.0, SVG Export Plug-In . SVG Version: 6.00 Build 0)  -->
<!DOCTYPE svg PUBLIC "-//W3C//DTD SVG 1.1//EN" "http://www.w3.org/Graphics/SVG/1.1/DTD/svg11.dtd">
<svg version="1.1"
	 id="svg2" xmlns:svg="http://www.w3.org/2000/svg" xmlns:cc="http://creativecommons.org/ns#" xmlns:sodipodi="http://sodipodi.sourceforge.net/DTD/sodipodi-0.dtd" xmlns:dc="http://purl.org/dc/elements/1.1/" xmlns:rdf="http://www.w3.org/1999/02/22-rdf-syntax-ns#" xmlns:inkscape="http://www.inkscape.org/namespaces/inkscape" inkscape:export-xdpi="90" inkscape:export-ydpi="90" sodipodi:docname="switch-on.svg" inkscape:version="0.48.3.1 r9886" inkscape:export-filename="/usr/share/themes/Gnome-Cupertino/gtk-3.0/assets/switch-off.png"
	 xmlns="http://www.w3.org/2000/svg" xmlns:xlink="http://www.w3.org/1999/xlink" x="0px" y="0px" width="56px" height="20px"
	 viewBox="0 0 56 20" enable-background="new 0 0 56 20" xml:space="preserve">
<g opacity="0.5">
	<path fill="#E8D24F" d="M52.667,5.5c0-2.209-1.791-4-4-4H7.332c-2.209,0-4,1.791-4,4v9c0,2.209,1.791,4,4,4h41.335
		c2.209,0,4-1.791,4-4V5.5z"/>
	<path fill="none" stroke="#CCBC29" stroke-miterlimit="10" d="M52.667,5.5c0-2.209-1.791-4-4-4H7.332c-2.209,0-4,1.791-4,4v9
		c0,2.209,1.791,4,4,4h41.335c2.209,0,4-1.791,4-4V5.5z"/>
	<path fill="#FFFFFF" d="M16.957,2c1.654,0,3,1.346,3,3l0,10c0,1.654-1.346,3-3,3h-10c-1.654,0-3-1.346-3-3V5c0-1.654,1.346-3,3-3
		H16.957z"/>
</g>
<rect x="37.69" y="5.942" opacity="0.5" fill="#FFFFFF" width="3" height="8"/>
</svg>
