/* XPM */ 
static const unsigned char * bottom_right_xpm[] = {
"22 16 3 1",
" 	c None",
"!	c black",
"#	c #383838",
"                     #",
"                     #",
"                     #",
"                     #",
"                     #",
"                     #",
"                     #",
"                     #",
"                     #",
"                     #",
"                     #",
"                     #",
"######################",
"######################",
"##################### ",
"####################  "};