/* XPM */ 
static const unsigned char * title_thin_xpm[] = {
"2 22 4 1",
" 	c None",
"!	c #3A3A3A",
"#	c #393939",
"$	c #383838",
"!!",
"!!",
"!!",
"!!",
"!!",
"!!",
"!!",
"!!",
"##",
"##",
"##",
"##",
"##",
"##",
"##",
"$$",
"$$",
"$$",
"$$",
"$$",
"$$",
"$$"};