/* XPM */ 
static const unsigned char * top_left_xpm[] = {
"4 22 6 1",
" 	c None",
"!	c black",
"#	c #3A3A3A",
"$	c #3A3B39",
"%	c #393939",
"&	c #383838",
"  ##",
" ###",
"$###",
"####",
"####",
"####",
"%%##",
"%%%%",
"%%%%",
"%%%%",
"%%%%",
"%%%%",
"%%%%",
"%%%%",
"&&%%",
"&&&&",
"&&&&",
"&&&&",
"&&&&",
"&&&&",
"&&&&",
"&&&&"};