<?xml version="1.0" encoding="utf-8"?>
<!-- Generator: Adobe Illustrator 17.0.0, SVG Export Plug-In . SVG Version: 6.00 Build 0)  -->
<!DOCTYPE svg PUBLIC "-//W3C//DTD SVG 1.1//EN" "http://www.w3.org/Graphics/SVG/1.1/DTD/svg11.dtd">
<svg version="1.1"
	 id="图层_1" xmlns:dc="http://purl.org/dc/elements/1.1/" xmlns:cc="http://creativecommons.org/ns#" xmlns:rdf="http://www.w3.org/1999/02/22-rdf-syntax-ns#" xmlns:svg="http://www.w3.org/2000/svg" xmlns:sodipodi="http://sodipodi.sourceforge.net/DTD/sodipodi-0.dtd" xmlns:inkscape="http://www.inkscape.org/namespaces/inkscape" sodipodi:docname="checkbox-mixed.svg" inkscape:version="0.48.4 r9939"
	 xmlns="http://www.w3.org/2000/svg" xmlns:xlink="http://www.w3.org/1999/xlink" x="0px" y="0px" width="16px" height="16px"
	 viewBox="0 0 16 16" enable-background="new 0 0 16 16" xml:space="preserve">
<sodipodi:namedview  pagecolor="#ffffff" inkscape:cx="-15.525424" inkscape:cy="8" showgrid="false" inkscape:zoom="14.75" bordercolor="#666666" borderopacity="1" id="namedview21" objecttolerance="10" guidetolerance="10" gridtolerance="10" inkscape:window-x="0" inkscape:pageshadow="2" inkscape:pageopacity="0" inkscape:window-height="1117" inkscape:current-layer="图层_1" inkscape:window-width="1920" inkscape:window-maximized="1" inkscape:window-y="0">
	</sodipodi:namedview>
<linearGradient id="path10_1_" gradientUnits="userSpaceOnUse" x1="600" y1="-1073.5" x2="600" y2="-1058.5" gradientTransform="matrix(1 0 0 -1 -592 -1058)">
	<stop  offset="0" style="stop-color:#FFFFFF;stop-opacity:0"/>
	<stop  offset="1" style="stop-color:#000000;stop-opacity:0.1"/>
</linearGradient>
<path id="path10" opacity="0.3" fill="url(#path10_1_)" stroke="#000102" stroke-miterlimit="10" enable-background="new    " d="
	M15.5,11.949c0,1.961-1.512,3.551-3.379,3.551H3.879c-1.866,0-3.379-1.59-3.379-3.551V4.051C0.5,2.09,2.013,0.5,3.879,0.5h8.241
	c1.868,0,3.38,1.59,3.38,3.551V11.949z"/>
<path id="path12" opacity="0.6" enable-background="new    " d="M3.88,13C3.395,13,3,12.529,3,11.949V4.051C3,3.471,3.395,3,3.88,3
	h8.241C12.598,3,13,3.481,13,4.051v7.896C13,12.529,12.606,13,12.12,13H3.88z"/>
<linearGradient id="path19_1_" gradientUnits="userSpaceOnUse" x1="600.7404" y1="-1073.0966" x2="595.1925" y2="-1058.1577" gradientTransform="matrix(1 0 0 -1 -592 -1058)">
	<stop  offset="0" style="stop-color:#FFFFFF;stop-opacity:0"/>
	<stop  offset="1" style="stop-color:#FFFFFF;stop-opacity:0.6"/>
</linearGradient>
<path id="path19" fill="url(#path19_1_)" d="M10.148,1.129h-5.97c-1.71,0-3.096,1.456-3.096,3.254v7.235
	c0,1.796,1.386,3.254,3.096,3.254h1.358C5.854,9.195,7.605,4.256,10.148,1.129z"/>
<linearGradient id="SVGID_1_" gradientUnits="userSpaceOnUse" x1="599" y1="-1098.5" x2="599" y2="-1083.5" gradientTransform="matrix(1 0 0 -1 -592 -1058)">
	<stop  offset="0" style="stop-color:#FFFFFF;stop-opacity:0"/>
	<stop  offset="1" style="stop-color:#000000;stop-opacity:0.1"/>
</linearGradient>
<circle opacity="0.7" fill="url(#SVGID_1_)" stroke="#000102" stroke-miterlimit="10" enable-background="new    " cx="7" cy="33" r="7.5"/>
</svg>
