<?xml version="1.0" encoding="utf-8"?>
<!-- Generator: Adobe Illustrator 17.0.0, SVG Export Plug-In . SVG Version: 6.00 Build 0)  -->
<!DOCTYPE svg PUBLIC "-//W3C//DTD SVG 1.1//EN" "http://www.w3.org/Graphics/SVG/1.1/DTD/svg11.dtd">
<svg version="1.1" xmlns="http://www.w3.org/2000/svg" xmlns:xlink="http://www.w3.org/1999/xlink" x="0px" y="0px" width="800px"
	 height="16px" viewBox="0 0 800 16" enable-background="new 0 0 800 16" xml:space="preserve">
<g id="图层_1">
	<g opacity="0.8">
		<linearGradient id="SVGID_1_" gradientUnits="userSpaceOnUse" x1="3.1901" y1="8" x2="798.0836" y2="8">
			<stop  offset="0" style="stop-color:#F7F7F7"/>
			<stop  offset="1" style="stop-color:#FFFFFF"/>
		</linearGradient>
		<path opacity="0.8" fill="url(#SVGID_1_)" d="M6.164,14.66c-1.64,0-2.974-1.334-2.974-2.973V4.314c0-1.64,1.334-2.973,2.974-2.973
			H795.11c1.64,0,2.974,1.334,2.974,2.973v7.372c0,1.64-1.334,2.973-2.974,2.973H6.164z"/>
	</g>
	<g opacity="0.2">
		<g opacity="0.3">
			<path fill="#FFFDFD" d="M794.912,1.5H5.966c-2.103,0-3.814,1.711-3.814,3.814v7.372c0,2.103,1.711,3.814,3.814,3.814h788.946
				c2.103,0,3.814-1.711,3.814-3.814V5.314C798.727,3.211,797.016,1.5,794.912,1.5z M797.886,12.686c0,1.64-1.334,2.973-2.974,2.973
				H5.967c-1.64,0-2.974-1.334-2.974-2.973V5.314c0-1.64,1.334-2.973,2.974-2.973h788.946c1.64,0,2.974,1.334,2.974,2.973V12.686z"
				/>
		</g>
		<g>
			<path d="M794.912,0.5H5.966c-2.103,0-3.814,1.711-3.814,3.814v7.372c0,2.103,1.711,3.814,3.814,3.814h788.946
				c2.103,0,3.814-1.711,3.814-3.814V4.314C798.727,2.211,797.016,0.5,794.912,0.5z M797.886,11.686c0,1.64-1.334,2.973-2.974,2.973
				H5.967c-1.64,0-2.974-1.334-2.974-2.973V4.314c0-1.64,1.334-2.973,2.974-2.973h788.946c1.64,0,2.974,1.334,2.974,2.973V11.686z"
				/>
		</g>
	</g>
</g>
<g id="图层_2">
</g>
</svg>
