<?xml version="1.0" encoding="utf-8"?>
<!-- Generator: Adobe Illustrator 17.0.0, SVG Export Plug-In . SVG Version: 6.00 Build 0)  -->
<!DOCTYPE svg PUBLIC "-//W3C//DTD SVG 1.1//EN" "http://www.w3.org/Graphics/SVG/1.1/DTD/svg11.dtd">
<svg version="1.1"
	 id="图层_1" xmlns:dc="http://purl.org/dc/elements/1.1/" xmlns:cc="http://creativecommons.org/ns#" xmlns:rdf="http://www.w3.org/1999/02/22-rdf-syntax-ns#" xmlns:svg="http://www.w3.org/2000/svg" xmlns:sodipodi="http://sodipodi.sourceforge.net/DTD/sodipodi-0.dtd" xmlns:inkscape="http://www.inkscape.org/namespaces/inkscape" sodipodi:docname="radio-mixed-hover.svg" inkscape:version="0.48.4 r9939"
	 xmlns="http://www.w3.org/2000/svg" xmlns:xlink="http://www.w3.org/1999/xlink" x="0px" y="0px" width="16px" height="16px"
	 viewBox="0 0 16 16" enable-background="new 0 0 16 16" xml:space="preserve">
<sodipodi:namedview  pagecolor="#ffffff" inkscape:cx="8" inkscape:cy="8" showgrid="false" inkscape:zoom="14.75" bordercolor="#666666" borderopacity="1" id="namedview27" objecttolerance="10" guidetolerance="10" gridtolerance="10" inkscape:window-x="0" inkscape:pageshadow="2" inkscape:pageopacity="0" inkscape:window-height="1114" inkscape:current-layer="图层_1" inkscape:window-width="1920" inkscape:window-maximized="1" inkscape:window-y="0">
	</sodipodi:namedview>
<path id="path3" opacity="0.5" fill="#000102" enable-background="new    " d="M8,16c-4.411,0-8-3.589-8-8s3.589-8,8-8s8,3.589,8,8
	S12.411,16,8,16z M8,1C4.14,1,1,4.14,1,8c0,3.859,3.14,7,7,7c3.859,0,7-3.141,7-7C15,4.14,11.859,1,8,1z"/>
<linearGradient id="path10_1_" gradientUnits="userSpaceOnUse" x1="306" y1="-386" x2="306" y2="-372" gradientTransform="matrix(1 0 0 -1 -298 -371)">
	<stop  offset="0" style="stop-color:#7CE2FF"/>
	<stop  offset="1" style="stop-color:#55B9FF"/>
</linearGradient>
<path id="path10" fill="url(#path10_1_)" d="M8,1C4.14,1,1,4.14,1,8c0,3.859,3.14,7,7,7c3.859,0,7-3.141,7-7C15,4.14,11.859,1,8,1z"
	/>
<path id="path12" inkscape:connector-curvature="0" opacity="0.6" enable-background="new    " d="M4.704,12
	C4.316,12,4,11.623,4,11.159V4.841C4,4.377,4.316,4,4.704,4h6.593C11.678,4,12,4.385,12,4.841v6.317C12,11.623,11.685,12,11.296,12
	H4.704z"/>
<linearGradient id="path18_1_" gradientUnits="userSpaceOnUse" x1="1196.3531" y1="-1846.9181" x2="1193.3269" y2="-1833.9706" gradientTransform="matrix(1 0 0 -1 -1188 -1833)">
	<stop  offset="0" style="stop-color:#FFFFFF;stop-opacity:0"/>
	<stop  offset="1" style="stop-color:#FFFFFF;stop-opacity:0.6"/>
</linearGradient>
<path id="path18" fill="url(#path18_1_)" d="M11.824,2.327c-1.12-0.785-2.481-1.249-3.952-1.249c-3.81,0-6.9,3.089-6.9,6.9
	c0,2.899,1.789,5.375,4.321,6.396C6.34,9.356,8.691,5.097,11.824,2.327z"/>
</svg>
