<?xml version="1.0" encoding="utf-8"?>
<!-- Generator: Adobe Illustrator 17.0.0, SVG Export Plug-In . SVG Version: 6.00 Build 0)  -->
<!DOCTYPE svg PUBLIC "-//W3C//DTD SVG 1.1//EN" "http://www.w3.org/Graphics/SVG/1.1/DTD/svg11.dtd">
<svg version="1.1" id="图层_1" xmlns="http://www.w3.org/2000/svg" xmlns:xlink="http://www.w3.org/1999/xlink" x="0px" y="0px"
	 width="16px" height="16px" viewBox="0 0 16 16" enable-background="new 0 0 16 16" xml:space="preserve">
<path opacity="0.5" fill="#000102" enable-background="new    " d="M8,16c-4.411,0-8-3.589-8-8s3.589-8,8-8s8,3.589,8,8
	S12.411,16,8,16z M8,1C4.14,1,1,4.14,1,8c0,3.859,3.14,7,7,7c3.859,0,7-3.141,7-7C15,4.14,11.859,1,8,1z"/>
<linearGradient id="SVGID_1_" gradientUnits="userSpaceOnUse" x1="604" y1="790" x2="604" y2="776" gradientTransform="matrix(1 0 0 1 -596 -775)">
	<stop  offset="0" style="stop-color:#7CE2FF"/>
	<stop  offset="1" style="stop-color:#55B9FF"/>
</linearGradient>
<path fill="url(#SVGID_1_)" d="M8,1C4.14,1,1,4.14,1,8c0,3.859,3.14,7,7,7c3.859,0,7-3.141,7-7C15,4.14,11.859,1,8,1z"/>
<linearGradient id="SVGID_2_" gradientUnits="userSpaceOnUse" x1="1494.3531" y1="2250.9182" x2="1491.3269" y2="2237.9707" gradientTransform="matrix(1 0 0 1 -1486 -2237)">
	<stop  offset="0" style="stop-color:#FFFFFF;stop-opacity:0"/>
	<stop  offset="1" style="stop-color:#FFFFFF;stop-opacity:0.6"/>
</linearGradient>
<path fill="url(#SVGID_2_)" d="M11.824,2.327c-1.12-0.785-2.481-1.249-3.952-1.249c-3.81,0-6.9,3.089-6.9,6.9
	c0,2.899,1.789,5.375,4.321,6.396C6.34,9.356,8.691,5.097,11.824,2.327z"/>
<linearGradient id="SVGID_3_" gradientUnits="userSpaceOnUse" x1="1490.8879" y1="2214.4131" x2="1490.8879" y2="2199.4131" gradientTransform="matrix(1 0 0 1 -1486 -2237)">
	<stop  offset="0" style="stop-color:#FFFFFF;stop-opacity:0"/>
	<stop  offset="1" style="stop-color:#000000;stop-opacity:0.1"/>
</linearGradient>
<circle opacity="0.7" fill="url(#SVGID_3_)" stroke="#000102" stroke-miterlimit="10" enable-background="new    " cx="4.888" cy="-30.087" r="7.5"/>
</svg>
