<?xml version="1.0" encoding="utf-8"?>
<!-- Generator: Adobe Illustrator 17.0.0, SVG Export Plug-In . SVG Version: 6.00 Build 0)  -->
<!DOCTYPE svg PUBLIC "-//W3C//DTD SVG 1.1//EN" "http://www.w3.org/Graphics/SVG/1.1/DTD/svg11.dtd">
<svg version="1.1"
	 id="图层_1" xmlns:dc="http://purl.org/dc/elements/1.1/" xmlns:cc="http://creativecommons.org/ns#" xmlns:rdf="http://www.w3.org/1999/02/22-rdf-syntax-ns#" xmlns:svg="http://www.w3.org/2000/svg" xmlns:sodipodi="http://sodipodi.sourceforge.net/DTD/sodipodi-0.dtd" xmlns:inkscape="http://www.inkscape.org/namespaces/inkscape" sodipodi:docname="scale-slider-vertical.svg" inkscape:version="0.48.4 r9939"
	 xmlns="http://www.w3.org/2000/svg" xmlns:xlink="http://www.w3.org/1999/xlink" x="0px" y="0px" width="20px" height="20px"
	 viewBox="0 0 20 20" enable-background="new 0 0 20 20" xml:space="preserve">
<sodipodi:namedview  inkscape:cx="8" objecttolerance="10" bordercolor="#666666" borderopacity="1" inkscape:zoom="14.75" pagecolor="#ffffff" inkscape:cy="8" showgrid="false" gridtolerance="10" guidetolerance="10" id="namedview22" inkscape:pageopacity="0" inkscape:window-width="1920" inkscape:window-height="1117" inkscape:pageshadow="2" inkscape:window-y="0" inkscape:window-maximized="1" inkscape:window-x="0" inkscape:current-layer="图层_1">
	</sodipodi:namedview>
<g id="g9">
	
		<linearGradient id="circle16_1_" gradientUnits="userSpaceOnUse" x1="1349" y1="1277.4753" x2="1349" y2="1292.3773" gradientTransform="matrix(1 0 0 1 -1339 -1280)">
		<stop  offset="0" style="stop-color:#D2D2D2"/>
		<stop  offset="1" style="stop-color:#F7F8F8"/>
	</linearGradient>
	<circle id="circle16" fill="url(#circle16_1_)" cx="10" cy="10" r="7.451"/>
</g>
<path id="path13" opacity="0.02" fill="none" stroke="#000000" stroke-width="0.977" stroke-miterlimit="10" enable-background="new    " d="
	M10,19.382c-5.173,0-9.382-4.209-9.382-9.383c0-5.173,4.209-9.382,9.382-9.382c5.174,0,9.383,4.209,9.383,9.382
	C19.382,15.174,15.174,19.382,10,19.382z"/>
<path id="path18" opacity="0.6" fill="none" stroke="#000000" stroke-width="0.977" stroke-miterlimit="10" enable-background="new    " d="
	M10,18.382c-4.623,0-8.382-3.76-8.382-8.382S5.377,1.618,10,1.618S18.382,5.377,18.382,10S14.623,18.382,10,18.382z"/>
<circle id="circle20" fill="none" stroke="#FFFFFF" stroke-width="0.977" stroke-miterlimit="10" cx="10" cy="10" r="7.451"/>
</svg>
