<?xml version="1.0" encoding="utf-8"?>
<!-- Generator: Adobe Illustrator 17.0.0, SVG Export Plug-In . SVG Version: 6.00 Build 0)  -->
<!DOCTYPE svg PUBLIC "-//W3C//DTD SVG 1.1//EN" "http://www.w3.org/Graphics/SVG/1.1/DTD/svg11.dtd">
<svg version="1.1"
	 id="svg2" inkscape:export-xdpi="90" inkscape:export-filename="/usr/share/themes/Gnome-Cupertino/gtk-3.0/assets/switch-off.png" inkscape:export-ydpi="90" xmlns:cc="http://creativecommons.org/ns#" xmlns:rdf="http://www.w3.org/1999/02/22-rdf-syntax-ns#" xmlns:dc="http://purl.org/dc/elements/1.1/" xmlns:sodipodi="http://sodipodi.sourceforge.net/DTD/sodipodi-0.dtd" xmlns:svg="http://www.w3.org/2000/svg" xmlns:inkscape="http://www.inkscape.org/namespaces/inkscape" inkscape:version="0.48.3.1 r9886" sodipodi:docname="switch-on.svg"
	 xmlns="http://www.w3.org/2000/svg" xmlns:xlink="http://www.w3.org/1999/xlink" x="0px" y="0px" width="56px" height="20px"
	 viewBox="0 0 56 20" enable-background="new 0 0 56 20" xml:space="preserve">
<g>
	<linearGradient id="SVGID_1_" gradientUnits="userSpaceOnUse" x1="28" y1="18.5" x2="28" y2="1.5">
		<stop  offset="0" style="stop-color:#5AD2FF"/>
		<stop  offset="0.9265" style="stop-color:#009DEA"/>
		<stop  offset="1" style="stop-color:#006AD5"/>
	</linearGradient>
	<linearGradient id="SVGID_2_" gradientUnits="userSpaceOnUse" x1="28" y1="19" x2="28" y2="1">
		<stop  offset="0" style="stop-color:#036EB8"/>
		<stop  offset="1" style="stop-color:#172A88"/>
	</linearGradient>
	<path fill="url(#SVGID_1_)" stroke="url(#SVGID_2_)" stroke-miterlimit="10" d="M52.667,10c0,4.694-3.8,8.5-8.488,8.5H11.82
		c-4.688,0-8.488-3.806-8.488-8.5l0,0c0-4.694,3.8-8.5,8.488-8.5H44.18C48.867,1.5,52.667,5.306,52.667,10L52.667,10z"/>
	<linearGradient id="SVGID_3_" gradientUnits="userSpaceOnUse" x1="27.9997" y1="17.9375" x2="27.9997" y2="2.0625">
		<stop  offset="0" style="stop-color:#000000;stop-opacity:0.6"/>
		<stop  offset="1" style="stop-color:#000000"/>
	</linearGradient>
	<path opacity="0.2" fill="none" stroke="url(#SVGID_3_)" stroke-miterlimit="10" d="M11.82,17.438
		c-4.094,0-7.425-3.337-7.425-7.438c0-4.101,3.331-7.438,7.425-7.438h32.359c4.094,0,7.425,3.336,7.425,7.438
		c0,4.101-3.331,7.438-7.425,7.438H11.82z"/>
	<linearGradient id="SVGID_4_" gradientUnits="userSpaceOnUse" x1="27.9997" y1="16.875" x2="27.9997" y2="3.125">
		<stop  offset="0" style="stop-color:#000000;stop-opacity:0.6"/>
		<stop  offset="1" style="stop-color:#000000"/>
	</linearGradient>
	<path opacity="0.1" fill="none" stroke="url(#SVGID_4_)" stroke-miterlimit="10" d="M11.82,16.375c-3.508,0-6.363-2.86-6.363-6.375
		s2.854-6.375,6.363-6.375h32.359c3.508,0,6.363,2.86,6.363,6.375s-2.854,6.375-6.363,6.375H11.82z"/>
</g>
<g>
	<g opacity="0.4">
		<text transform="matrix(0.9985 0 0 1 11.813 13.2783)" font-family="'Corbel'" font-size="12">ON</text>
	</g>
	<g>
		<text transform="matrix(0.9985 0 0 1 11.813 13.7783)" fill="#FFFFFF" font-family="'Corbel'" font-size="12">ON</text>
	</g>
</g>
<g>
	<path opacity="0.5" d="M44.042,19c-4.962,0-9-4.038-9-9s4.038-9,9-9s9,4.037,9,9S49.004,19,44.042,19z M44.042,2.059
		c-4.379,0-7.941,3.562-7.941,7.941c0,4.379,3.562,7.941,7.941,7.941s7.941-3.562,7.941-7.941
		C51.983,5.621,48.421,2.059,44.042,2.059z"/>
	<g>
		<linearGradient id="SVGID_5_" gradientUnits="userSpaceOnUse" x1="44.0423" y1="18" x2="44.0423" y2="2">
			<stop  offset="0" style="stop-color:#FFFFFF"/>
			<stop  offset="0.408" style="stop-color:#FDFDFD"/>
			<stop  offset="0.6411" style="stop-color:#F4F4F4"/>
			<stop  offset="0.8296" style="stop-color:#E6E6E6"/>
			<stop  offset="0.9941" style="stop-color:#D3D3D3"/>
			<stop  offset="1" style="stop-color:#D2D2D2"/>
		</linearGradient>
		<circle fill="url(#SVGID_5_)" cx="44.042" cy="10" r="8"/>
		<ellipse fill="none" stroke="#FFFFFF" stroke-miterlimit="10" cx="44.042" cy="10" rx="7.187" ry="7.194"/>
	</g>
</g>
</svg>
