<?xml version="1.0" encoding="utf-8"?>
<!-- Generator: Adobe Illustrator 17.0.0, SVG Export Plug-In . SVG Version: 6.00 Build 0)  -->
<!DOCTYPE svg PUBLIC "-//W3C//DTD SVG 1.1//EN" "http://www.w3.org/Graphics/SVG/1.1/DTD/svg11.dtd">
<svg version="1.1" id="图层_1" xmlns="http://www.w3.org/2000/svg" xmlns:xlink="http://www.w3.org/1999/xlink" x="0px" y="0px"
	 width="16px" height="16px" viewBox="0 0 16 16" enable-background="new 0 0 16 16" xml:space="preserve">
<linearGradient id="SVGID_1_" gradientUnits="userSpaceOnUse" x1="604" y1="790" x2="604" y2="776" gradientTransform="matrix(1 0 0 1 -596 -775)">
	<stop  offset="0" style="stop-color:#7CE2FF"/>
	<stop  offset="1" style="stop-color:#55B9FF"/>
</linearGradient>
<path fill="url(#SVGID_1_)" d="M3.879,1C2.292,1,1,2.369,1,4.051v7.898C1,13.632,2.292,15,3.879,15h8.242
	C13.709,15,15,13.632,15,11.949V4.051C15,2.369,13.708,1,12.12,1H3.879z"/>
<path opacity="0.5" fill="#000102" enable-background="new    " d="M12.121,16H3.879C1.74,16,0,14.183,0,11.949V4.051
	C0,1.817,1.74,0,3.879,0h8.241C14.26,0,16,1.817,16,4.051v7.898C16,14.183,14.26,16,12.121,16z M3.879,1C2.292,1,1,2.369,1,4.051
	v7.898C1,13.632,2.292,15,3.879,15h8.242C13.709,15,15,13.632,15,11.949V4.051C15,2.369,13.708,1,12.12,1H3.879z"/>
<linearGradient id="SVGID_2_" gradientUnits="userSpaceOnUse" x1="948.7404" y1="-1600.0966" x2="943.1925" y2="-1585.1577" gradientTransform="matrix(1 0 0 -1 -940 -1585)">
	<stop  offset="0" style="stop-color:#FFFFFF;stop-opacity:0"/>
	<stop  offset="1" style="stop-color:#FFFFFF;stop-opacity:0.6"/>
</linearGradient>
<path fill="url(#SVGID_2_)" d="M10.148,1.129h-5.97c-1.71,0-3.096,1.456-3.096,3.254v7.235c0,1.796,1.386,3.254,3.096,3.254h1.358
	C5.854,9.195,7.605,4.256,10.148,1.129z"/>
<linearGradient id="SVGID_3_" gradientUnits="userSpaceOnUse" x1="950" y1="-1621.5" x2="950" y2="-1606.5" gradientTransform="matrix(1 0 0 -1 -940 -1585)">
	<stop  offset="0" style="stop-color:#FFFFFF;stop-opacity:0"/>
	<stop  offset="1" style="stop-color:#000000;stop-opacity:0.1"/>
</linearGradient>
<circle opacity="0.7" fill="url(#SVGID_3_)" stroke="#000102" stroke-miterlimit="10" enable-background="new    " cx="10" cy="29" r="7.5"/>
</svg>
