<?xml version="1.0" encoding="utf-8"?>
<!-- Generator: Adobe Illustrator 17.0.0, SVG Export Plug-In . SVG Version: 6.00 Build 0)  -->
<!DOCTYPE svg PUBLIC "-//W3C//DTD SVG 1.1//EN" "http://www.w3.org/Graphics/SVG/1.1/DTD/svg11.dtd">
<svg version="1.1" id="图层_1" xmlns="http://www.w3.org/2000/svg" xmlns:xlink="http://www.w3.org/1999/xlink" x="0px" y="0px"
	 width="20px" height="20px" viewBox="0 0 20 20" enable-background="new 0 0 20 20" xml:space="preserve">
<circle fill="#AFD362" cx="50.875" cy="44.375" r="7"/>
<g>
	<line fill="none" stroke="#FFFFFF" stroke-width="2" stroke-miterlimit="10" x1="45.875" y1="44.375" x2="55.875" y2="44.375"/>
	<path fill="none" stroke="#FFFFFF" stroke-width="2" stroke-miterlimit="10" d="M50.875,39.375"/>
	<path fill="none" stroke="#FFFFFF" stroke-width="2" stroke-miterlimit="10" d="M50.875,49.375"/>
</g>
<circle fill="#AFD362" cx="64.875" cy="45" r="7"/>
<g>
	<line fill="none" stroke="#FFFFFF" stroke-width="2" stroke-miterlimit="10" x1="59.875" y1="45" x2="69.875" y2="45"/>
	<line fill="none" stroke="#FFFFFF" stroke-width="2" stroke-miterlimit="10" x1="64.875" y1="50" x2="64.875" y2="40"/>
</g>
<circle fill="#E8D24F" cx="78.875" cy="44.375" r="7"/>
<circle fill="#DBE27F" cx="100.702" cy="44.062" r="7"/>
<circle fill="#DBE27F" cx="114.702" cy="44.688" r="7"/>
<circle fill="#DBE27F" cx="128.702" cy="44.062" r="7"/>
<g>
	<line fill="none" stroke="#FFFFFF" stroke-width="2" stroke-miterlimit="10" x1="75.339" y1="47.911" x2="82.411" y2="40.839"/>
	<line fill="none" stroke="#FFFFFF" stroke-width="2" stroke-miterlimit="10" x1="82.411" y1="47.911" x2="75.339" y2="40.839"/>
</g>
<circle fill="#A0BA31" cx="50.25" cy="28.875" r="7"/>
<g>
	<line fill="none" stroke="#FFFFFF" stroke-width="2" stroke-miterlimit="10" x1="45.25" y1="28.875" x2="55.25" y2="28.875"/>
	<path fill="none" stroke="#FFFFFF" stroke-width="2" stroke-miterlimit="10" d="M50.25,23.875"/>
	<path fill="none" stroke="#FFFFFF" stroke-width="2" stroke-miterlimit="10" d="M50.25,33.875"/>
</g>
<circle fill="#A0BA31" cx="64.25" cy="29.5" r="7"/>
<g>
	<line fill="none" stroke="#FFFFFF" stroke-width="2" stroke-miterlimit="10" x1="59.25" y1="29.5" x2="69.25" y2="29.5"/>
	<line fill="none" stroke="#FFFFFF" stroke-width="2" stroke-miterlimit="10" x1="64.25" y1="34.5" x2="64.25" y2="24.5"/>
</g>
<circle fill="#A0BA31" cx="62.25" cy="3" r="7"/>
<circle fill="#DD9F33" cx="78.25" cy="28.875" r="7"/>
<g>
	<line fill="none" stroke="#FFFFFF" stroke-width="2" stroke-miterlimit="10" x1="74.714" y1="32.411" x2="81.786" y2="25.339"/>
	<line fill="none" stroke="#FFFFFF" stroke-width="2" stroke-miterlimit="10" x1="81.786" y1="32.411" x2="74.714" y2="25.339"/>
</g>
<rect x="59.25" fill="none" stroke="#FFFFFF" stroke-width="2" stroke-miterlimit="10" width="6" height="6"/>
<g>
	<circle fill="#AFD362" cx="92" cy="10" r="7"/>
	<rect x="89" y="7" fill="none" stroke="#FFFFFF" stroke-width="2" stroke-miterlimit="10" width="6" height="6"/>
</g>
<circle fill="none" stroke="#AFD362" stroke-miterlimit="10" cx="10" cy="10" r="6.5"/>
</svg>
