<?xml version="1.0" encoding="utf-8"?>
<!-- Generator: Adobe Illustrator 17.0.0, SVG Export Plug-In . SVG Version: 6.00 Build 0)  -->
<!DOCTYPE svg PUBLIC "-//W3C//DTD SVG 1.1//EN" "http://www.w3.org/Graphics/SVG/1.1/DTD/svg11.dtd">
<svg version="1.1" id="图层_1" xmlns="http://www.w3.org/2000/svg" xmlns:xlink="http://www.w3.org/1999/xlink" x="0px" y="0px"
	 width="20px" height="20px" viewBox="0 0 20 20" enable-background="new 0 0 20 20" xml:space="preserve">
<circle fill="#AFD362" cx="72.875" cy="30.375" r="7"/>
<g>
	<line fill="none" stroke="#FFFFFF" stroke-width="2" stroke-miterlimit="10" x1="67.875" y1="30.375" x2="77.875" y2="30.375"/>
	<path fill="none" stroke="#FFFFFF" stroke-width="2" stroke-miterlimit="10" d="M72.875,25.375"/>
	<path fill="none" stroke="#FFFFFF" stroke-width="2" stroke-miterlimit="10" d="M72.875,35.375"/>
</g>
<circle fill="#AFD362" cx="86.875" cy="31" r="7"/>
<g>
	<line fill="none" stroke="#FFFFFF" stroke-width="2" stroke-miterlimit="10" x1="81.875" y1="31" x2="91.875" y2="31"/>
	<line fill="none" stroke="#FFFFFF" stroke-width="2" stroke-miterlimit="10" x1="86.875" y1="36" x2="86.875" y2="26"/>
</g>
<circle fill="#E8D24F" cx="100.875" cy="30.375" r="7"/>
<circle fill="#DBE27F" cx="122.702" cy="30.062" r="7"/>
<circle fill="#DBE27F" cx="136.702" cy="30.688" r="7"/>
<circle fill="#DBE27F" cx="150.702" cy="30.062" r="7"/>
<g>
	<line fill="none" stroke="#FFFFFF" stroke-width="2" stroke-miterlimit="10" x1="97.339" y1="33.911" x2="104.411" y2="26.839"/>
	<line fill="none" stroke="#FFFFFF" stroke-width="2" stroke-miterlimit="10" x1="104.411" y1="33.911" x2="97.339" y2="26.839"/>
</g>
<circle fill="#A0BA31" cx="72.25" cy="14.875" r="7"/>
<g>
	<line fill="none" stroke="#FFFFFF" stroke-width="2" stroke-miterlimit="10" x1="67.25" y1="14.875" x2="77.25" y2="14.875"/>
	<path fill="none" stroke="#FFFFFF" stroke-width="2" stroke-miterlimit="10" d="M72.25,9.875"/>
	<path fill="none" stroke="#FFFFFF" stroke-width="2" stroke-miterlimit="10" d="M72.25,19.875"/>
</g>
<g>
	<circle fill="#A0BA31" cx="86.25" cy="15.5" r="7"/>
	<g>
		<line fill="none" stroke="#FFFFFF" stroke-width="2" stroke-miterlimit="10" x1="81.25" y1="15.5" x2="91.25" y2="15.5"/>
		<line fill="none" stroke="#FFFFFF" stroke-width="2" stroke-miterlimit="10" x1="86.25" y1="20.5" x2="86.25" y2="10.5"/>
	</g>
</g>
<g>
	<circle fill="#A0BA31" cx="10" cy="10" r="7"/>
	<g>
		<line fill="none" stroke="#FFFFFF" stroke-width="2" stroke-miterlimit="10" x1="5" y1="10" x2="15" y2="10"/>
		<line fill="none" stroke="#FFFFFF" stroke-width="2" stroke-miterlimit="10" x1="10" y1="15" x2="10" y2="5"/>
	</g>
</g>
<circle fill="#A0BA31" cx="84.25" cy="-11" r="7"/>
<circle fill="#DD9F33" cx="100.25" cy="14.875" r="7"/>
<g>
	<line fill="none" stroke="#FFFFFF" stroke-width="2" stroke-miterlimit="10" x1="96.714" y1="18.411" x2="103.786" y2="11.339"/>
	<line fill="none" stroke="#FFFFFF" stroke-width="2" stroke-miterlimit="10" x1="103.786" y1="18.411" x2="96.714" y2="11.339"/>
</g>
<rect x="81.25" y="-14" fill="none" stroke="#FFFFFF" stroke-width="2" stroke-miterlimit="10" width="6" height="6"/>
<g>
	<circle fill="#AFD362" cx="114" cy="-4" r="7"/>
	<rect x="111" y="-7" fill="none" stroke="#FFFFFF" stroke-width="2" stroke-miterlimit="10" width="6" height="6"/>
</g>
</svg>
