<?xml version="1.0" encoding="utf-8"?>
<!-- Generator: Adobe Illustrator 17.0.0, SVG Export Plug-In . SVG Version: 6.00 Build 0)  -->
<!DOCTYPE svg PUBLIC "-//W3C//DTD SVG 1.1//EN" "http://www.w3.org/Graphics/SVG/1.1/DTD/svg11.dtd">
<svg version="1.1" id="图层_1" xmlns="http://www.w3.org/2000/svg" xmlns:xlink="http://www.w3.org/1999/xlink" x="0px" y="0px"
	 width="20px" height="20px" viewBox="0 0 20 20" enable-background="new 0 0 20 20" xml:space="preserve">
<circle fill="#AFD362" cx="-31.125" cy="125.375" r="7"/>
<g>
	
		<line fill="none" stroke="#FFFFFF" stroke-width="2" stroke-miterlimit="10" x1="-36.125" y1="125.375" x2="-26.125" y2="125.375"/>
	<path fill="none" stroke="#FFFFFF" stroke-width="2" stroke-miterlimit="10" d="M-31.125,120.375"/>
	<path fill="none" stroke="#FFFFFF" stroke-width="2" stroke-miterlimit="10" d="M-31.125,130.375"/>
</g>
<circle fill="#AFD362" cx="-17.125" cy="126" r="7"/>
<g>
	<line fill="none" stroke="#FFFFFF" stroke-width="2" stroke-miterlimit="10" x1="-22.125" y1="126" x2="-12.125" y2="126"/>
	<line fill="none" stroke="#FFFFFF" stroke-width="2" stroke-miterlimit="10" x1="-17.125" y1="131" x2="-17.125" y2="121"/>
</g>
<circle fill="#E8D24F" cx="-3.125" cy="125.375" r="7"/>
<circle fill="#DBE27F" cx="18.702" cy="125.062" r="7"/>
<circle fill="#DBE27F" cx="32.702" cy="125.688" r="7"/>
<circle fill="#DBE27F" cx="46.702" cy="125.062" r="7"/>
<g>
	<line fill="none" stroke="#FFFFFF" stroke-width="2" stroke-miterlimit="10" x1="-6.661" y1="128.911" x2="0.411" y2="121.839"/>
	<line fill="none" stroke="#FFFFFF" stroke-width="2" stroke-miterlimit="10" x1="0.411" y1="128.911" x2="-6.661" y2="121.839"/>
</g>
<circle fill="#A0BA31" cx="-31.75" cy="109.875" r="7"/>
<g>
	<line fill="none" stroke="#FFFFFF" stroke-width="2" stroke-miterlimit="10" x1="-36.75" y1="109.875" x2="-26.75" y2="109.875"/>
	<path fill="none" stroke="#FFFFFF" stroke-width="2" stroke-miterlimit="10" d="M-31.75,104.875"/>
	<path fill="none" stroke="#FFFFFF" stroke-width="2" stroke-miterlimit="10" d="M-31.75,114.875"/>
</g>
<circle fill="#A0BA31" cx="-17.75" cy="110.5" r="7"/>
<g>
	<line fill="none" stroke="#FFFFFF" stroke-width="2" stroke-miterlimit="10" x1="-22.75" y1="110.5" x2="-12.75" y2="110.5"/>
	<line fill="none" stroke="#FFFFFF" stroke-width="2" stroke-miterlimit="10" x1="-17.75" y1="115.5" x2="-17.75" y2="105.5"/>
</g>
<circle fill="#A0BA31" cx="-19.75" cy="84" r="7"/>
<circle fill="#DD9F33" cx="-3.75" cy="109.875" r="7"/>
<g>
	<line fill="none" stroke="#FFFFFF" stroke-width="2" stroke-miterlimit="10" x1="-7.286" y1="113.411" x2="-0.214" y2="106.339"/>
	<line fill="none" stroke="#FFFFFF" stroke-width="2" stroke-miterlimit="10" x1="-0.214" y1="113.411" x2="-7.286" y2="106.339"/>
</g>
<rect x="-22.75" y="81" fill="none" stroke="#FFFFFF" stroke-width="2" stroke-miterlimit="10" width="6" height="6"/>
<g>
	<circle fill="#A0BA31" cx="10" cy="10" r="7"/>
	<rect x="7" y="7" fill="none" stroke="#FFFFFF" stroke-width="2" stroke-miterlimit="10" width="6" height="6"/>
</g>
<g>
	<circle fill="#AFD362" cx="10" cy="91" r="7"/>
	<rect x="7" y="88" fill="none" stroke="#FFFFFF" stroke-width="2" stroke-miterlimit="10" width="6" height="6"/>
</g>
</svg>
