<?xml version="1.0" encoding="utf-8"?>
<!-- Generator: Adobe Illustrator 17.0.0, SVG Export Plug-In . SVG Version: 6.00 Build 0)  -->
<!DOCTYPE svg PUBLIC "-//W3C//DTD SVG 1.1//EN" "http://www.w3.org/Graphics/SVG/1.1/DTD/svg11.dtd">
<svg version="1.1" id="图层_1" xmlns="http://www.w3.org/2000/svg" xmlns:xlink="http://www.w3.org/1999/xlink" x="0px" y="0px"
	 width="20px" height="20px" viewBox="0 0 20 20" enable-background="new 0 0 20 20" xml:space="preserve">
<circle fill="#AFD362" cx="-71.125" cy="-13.625" r="7"/>
<g>
	
		<line fill="none" stroke="#FFFFFF" stroke-width="2" stroke-miterlimit="10" x1="-76.125" y1="-13.625" x2="-66.125" y2="-13.625"/>
	<path fill="none" stroke="#FFFFFF" stroke-width="2" stroke-miterlimit="10" d="M-71.125-18.625"/>
	<path fill="none" stroke="#FFFFFF" stroke-width="2" stroke-miterlimit="10" d="M-71.125-8.625"/>
</g>
<circle fill="#AFD362" cx="-57.125" cy="-13" r="7"/>
<g>
	<line fill="none" stroke="#FFFFFF" stroke-width="2" stroke-miterlimit="10" x1="-62.125" y1="-13" x2="-52.125" y2="-13"/>
	<line fill="none" stroke="#FFFFFF" stroke-width="2" stroke-miterlimit="10" x1="-57.125" y1="-8" x2="-57.125" y2="-18"/>
</g>
<circle fill="#DBE27F" cx="-21.298" cy="-13.938" r="7"/>
<circle fill="#DBE27F" cx="-7.298" cy="-13.312" r="7"/>
<circle fill="#DBE27F" cx="6.702" cy="-13.938" r="7"/>
<g>
	<circle fill="#E8D24F" cx="-43.125" cy="-13.625" r="7"/>
	<g>
		
			<line fill="none" stroke="#FFFFFF" stroke-width="2" stroke-miterlimit="10" x1="-46.661" y1="-10.089" x2="-39.589" y2="-17.161"/>
		
			<line fill="none" stroke="#FFFFFF" stroke-width="2" stroke-miterlimit="10" x1="-39.589" y1="-10.089" x2="-46.661" y2="-17.161"/>
	</g>
</g>
<g>
	<circle fill="#E8D24F" cx="10" cy="10" r="7"/>
	<g>
		<line fill="none" stroke="#FFFFFF" stroke-width="2" stroke-miterlimit="10" x1="6.464" y1="13.536" x2="13.536" y2="6.464"/>
		<line fill="none" stroke="#FFFFFF" stroke-width="2" stroke-miterlimit="10" x1="13.536" y1="13.536" x2="6.464" y2="6.464"/>
	</g>
</g>
<circle fill="#A0BA31" cx="-71.75" cy="-29.125" r="7"/>
<g>
	<line fill="none" stroke="#FFFFFF" stroke-width="2" stroke-miterlimit="10" x1="-76.75" y1="-29.125" x2="-66.75" y2="-29.125"/>
	<path fill="none" stroke="#FFFFFF" stroke-width="2" stroke-miterlimit="10" d="M-71.75-34.125"/>
	<path fill="none" stroke="#FFFFFF" stroke-width="2" stroke-miterlimit="10" d="M-71.75-24.125"/>
</g>
<circle fill="#A0BA31" cx="-57.75" cy="-28.5" r="7"/>
<g>
	<line fill="none" stroke="#FFFFFF" stroke-width="2" stroke-miterlimit="10" x1="-62.75" y1="-28.5" x2="-52.75" y2="-28.5"/>
	<line fill="none" stroke="#FFFFFF" stroke-width="2" stroke-miterlimit="10" x1="-57.75" y1="-23.5" x2="-57.75" y2="-33.5"/>
</g>
<circle fill="#A0BA31" cx="-59.75" cy="-55" r="7"/>
<circle fill="#DD9F33" cx="-43.75" cy="-29.125" r="7"/>
<g>
	
		<line fill="none" stroke="#FFFFFF" stroke-width="2" stroke-miterlimit="10" x1="-47.286" y1="-25.589" x2="-40.214" y2="-32.661"/>
	
		<line fill="none" stroke="#FFFFFF" stroke-width="2" stroke-miterlimit="10" x1="-40.214" y1="-25.589" x2="-47.286" y2="-32.661"/>
</g>
<rect x="-62.75" y="-58" fill="none" stroke="#FFFFFF" stroke-width="2" stroke-miterlimit="10" width="6" height="6"/>
<g>
	<circle fill="#AFD362" cx="-30" cy="-48" r="7"/>
	<rect x="-33" y="-51" fill="none" stroke="#FFFFFF" stroke-width="2" stroke-miterlimit="10" width="6" height="6"/>
</g>
</svg>
