<?xml version="1.0" encoding="utf-8"?>
<!-- Generator: Adobe Illustrator 17.0.0, SVG Export Plug-In . SVG Version: 6.00 Build 0)  -->
<!DOCTYPE svg PUBLIC "-//W3C//DTD SVG 1.1//EN" "http://www.w3.org/Graphics/SVG/1.1/DTD/svg11.dtd">
<svg version="1.1" id="图层_1" xmlns="http://www.w3.org/2000/svg" xmlns:xlink="http://www.w3.org/1999/xlink" x="0px" y="0px"
	 width="20px" height="20px" viewBox="0 0 20 20" enable-background="new 0 0 20 20" xml:space="preserve">
<circle fill="#AFD362" cx="21.327" cy="117.875" r="7"/>
<g>
	<line fill="none" stroke="#FFFFFF" stroke-width="2" stroke-miterlimit="10" x1="16.327" y1="117.875" x2="26.327" y2="117.875"/>
	<path fill="none" stroke="#FFFFFF" stroke-width="2" stroke-miterlimit="10" d="M21.327,112.875"/>
	<path fill="none" stroke="#FFFFFF" stroke-width="2" stroke-miterlimit="10" d="M21.327,122.875"/>
</g>
<circle fill="#AFD362" cx="35.327" cy="118.5" r="7"/>
<g>
	<line fill="none" stroke="#FFFFFF" stroke-width="2" stroke-miterlimit="10" x1="30.327" y1="118.5" x2="40.327" y2="118.5"/>
	<line fill="none" stroke="#FFFFFF" stroke-width="2" stroke-miterlimit="10" x1="35.327" y1="123.5" x2="35.327" y2="113.5"/>
</g>
<circle fill="#E8D24F" cx="49.327" cy="117.875" r="7"/>
<circle fill="#DBE27F" cx="71.154" cy="117.562" r="7"/>
<circle fill="#DBE27F" cx="85.154" cy="118.188" r="7"/>
<circle fill="#DBE27F" cx="99.154" cy="117.562" r="7"/>
<g>
	<line fill="none" stroke="#FFFFFF" stroke-width="2" stroke-miterlimit="10" x1="45.791" y1="121.411" x2="52.863" y2="114.339"/>
	<line fill="none" stroke="#FFFFFF" stroke-width="2" stroke-miterlimit="10" x1="52.863" y1="121.411" x2="45.791" y2="114.339"/>
</g>
<circle fill="#A0BA31" cx="20.702" cy="102.375" r="7"/>
<g>
	<line fill="none" stroke="#FFFFFF" stroke-width="2" stroke-miterlimit="10" x1="15.702" y1="102.375" x2="25.702" y2="102.375"/>
	<path fill="none" stroke="#FFFFFF" stroke-width="2" stroke-miterlimit="10" d="M20.702,97.375"/>
	<path fill="none" stroke="#FFFFFF" stroke-width="2" stroke-miterlimit="10" d="M20.702,107.375"/>
</g>
<circle fill="#A0BA31" cx="34.702" cy="103" r="7"/>
<g>
	<line fill="none" stroke="#FFFFFF" stroke-width="2" stroke-miterlimit="10" x1="29.702" y1="103" x2="39.702" y2="103"/>
	<line fill="none" stroke="#FFFFFF" stroke-width="2" stroke-miterlimit="10" x1="34.702" y1="108" x2="34.702" y2="98"/>
</g>
<circle fill="#A0BA31" cx="32.702" cy="76.5" r="7"/>
<g>
	<circle fill="#DD9F33" cx="48.702" cy="102.375" r="7"/>
	<g>
		<line fill="none" stroke="#FFFFFF" stroke-width="2" stroke-miterlimit="10" x1="45.166" y1="105.911" x2="52.238" y2="98.839"/>
		<line fill="none" stroke="#FFFFFF" stroke-width="2" stroke-miterlimit="10" x1="52.238" y1="105.911" x2="45.166" y2="98.839"/>
	</g>
</g>
<g>
	<circle fill="#DD9F33" cx="10" cy="10" r="7"/>
	<g>
		<line fill="none" stroke="#FFFFFF" stroke-width="2" stroke-miterlimit="10" x1="6.464" y1="13.536" x2="13.536" y2="6.464"/>
		<line fill="none" stroke="#FFFFFF" stroke-width="2" stroke-miterlimit="10" x1="13.536" y1="13.536" x2="6.464" y2="6.464"/>
	</g>
</g>
<rect x="29.702" y="73.5" fill="none" stroke="#FFFFFF" stroke-width="2" stroke-miterlimit="10" width="6" height="6"/>
<g>
	<circle fill="#AFD362" cx="62.452" cy="83.5" r="7"/>
	<rect x="59.452" y="80.5" fill="none" stroke="#FFFFFF" stroke-width="2" stroke-miterlimit="10" width="6" height="6"/>
</g>
</svg>
