<?xml version="1.0" encoding="utf-8"?>
<!-- Generator: Adobe Illustrator 17.0.0, SVG Export Plug-In . SVG Version: 6.00 Build 0)  -->
<!DOCTYPE svg PUBLIC "-//W3C//DTD SVG 1.1//EN" "http://www.w3.org/Graphics/SVG/1.1/DTD/svg11.dtd">
<svg version="1.1" id="图层_1" xmlns="http://www.w3.org/2000/svg" xmlns:xlink="http://www.w3.org/1999/xlink" x="0px" y="0px"
	 width="20px" height="20px" viewBox="0 0 20 20" enable-background="new 0 0 20 20" xml:space="preserve">
<circle fill="#AFD362" cx="55.875" cy="12.375" r="7"/>
<g>
	<line fill="none" stroke="#FFFFFF" stroke-width="2" stroke-miterlimit="10" x1="50.875" y1="12.375" x2="60.875" y2="12.375"/>
	<path fill="none" stroke="#FFFFFF" stroke-width="2" stroke-miterlimit="10" d="M55.875,7.375"/>
	<path fill="none" stroke="#FFFFFF" stroke-width="2" stroke-miterlimit="10" d="M55.875,17.375"/>
</g>
<circle fill="#AFD362" cx="69.875" cy="13" r="7"/>
<g>
	<line fill="none" stroke="#FFFFFF" stroke-width="2" stroke-miterlimit="10" x1="64.875" y1="13" x2="74.875" y2="13"/>
	<line fill="none" stroke="#FFFFFF" stroke-width="2" stroke-miterlimit="10" x1="69.875" y1="18" x2="69.875" y2="8"/>
</g>
<circle fill="#E8D24F" cx="83.875" cy="12.375" r="7"/>
<circle fill="#DBE27F" cx="105.702" cy="12.062" r="7"/>
<circle fill="#DBE27F" cx="119.702" cy="12.688" r="7"/>
<circle fill="#DBE27F" cx="133.702" cy="12.062" r="7"/>
<g>
	<line fill="none" stroke="#FFFFFF" stroke-width="2" stroke-miterlimit="10" x1="80.339" y1="15.911" x2="87.411" y2="8.839"/>
	<line fill="none" stroke="#FFFFFF" stroke-width="2" stroke-miterlimit="10" x1="87.411" y1="15.911" x2="80.339" y2="8.839"/>
</g>
<circle fill="#A0BA31" cx="55.25" cy="-3.125" r="7"/>
<g>
	<line fill="none" stroke="#FFFFFF" stroke-width="2" stroke-miterlimit="10" x1="50.25" y1="-3.125" x2="60.25" y2="-3.125"/>
	<path fill="none" stroke="#FFFFFF" stroke-width="2" stroke-miterlimit="10" d="M55.25-8.125"/>
	<path fill="none" stroke="#FFFFFF" stroke-width="2" stroke-miterlimit="10" d="M55.25,1.875"/>
</g>
<circle fill="#A0BA31" cx="69.25" cy="-2.5" r="7"/>
<g>
	<line fill="none" stroke="#FFFFFF" stroke-width="2" stroke-miterlimit="10" x1="64.25" y1="-2.5" x2="74.25" y2="-2.5"/>
	<line fill="none" stroke="#FFFFFF" stroke-width="2" stroke-miterlimit="10" x1="69.25" y1="2.5" x2="69.25" y2="-7.5"/>
</g>
<circle fill="#A0BA31" cx="67.25" cy="-29" r="7"/>
<circle fill="#DD9F33" cx="83.25" cy="-3.125" r="7"/>
<g>
	<line fill="none" stroke="#FFFFFF" stroke-width="2" stroke-miterlimit="10" x1="79.714" y1="0.411" x2="86.786" y2="-6.661"/>
	<line fill="none" stroke="#FFFFFF" stroke-width="2" stroke-miterlimit="10" x1="86.786" y1="0.411" x2="79.714" y2="-6.661"/>
</g>
<rect x="64.25" y="-32" fill="none" stroke="#FFFFFF" stroke-width="2" stroke-miterlimit="10" width="6" height="6"/>
<circle fill="#AFD362" cx="87.411" cy="-19" r="7"/>
<rect x="84.411" y="-22" fill="none" stroke="#FFFFFF" stroke-width="2" stroke-miterlimit="10" width="6" height="6"/>
<circle fill="none" stroke="#AFD362" stroke-miterlimit="10" cx="10" cy="10" r="6.5"/>
</svg>
