<?xml version="1.0" encoding="utf-8"?>
<!-- Generator: Adobe Illustrator 17.0.0, SVG Export Plug-In . SVG Version: 6.00 Build 0)  -->
<!DOCTYPE svg PUBLIC "-//W3C//DTD SVG 1.1//EN" "http://www.w3.org/Graphics/SVG/1.1/DTD/svg11.dtd">
<svg version="1.1" id="图层_1" xmlns="http://www.w3.org/2000/svg" xmlns:xlink="http://www.w3.org/1999/xlink" x="0px" y="0px"
	 width="20px" height="20px" viewBox="0 0 20 20" enable-background="new 0 0 20 20" xml:space="preserve">
<circle fill="#AFD362" cx="10.875" cy="69.375" r="7"/>
<g>
	<line fill="none" stroke="#FFFFFF" stroke-width="2" stroke-miterlimit="10" x1="5.875" y1="69.375" x2="15.875" y2="69.375"/>
	<path fill="none" stroke="#FFFFFF" stroke-width="2" stroke-miterlimit="10" d="M10.875,64.375"/>
	<path fill="none" stroke="#FFFFFF" stroke-width="2" stroke-miterlimit="10" d="M10.875,74.375"/>
</g>
<circle fill="#AFD362" cx="24.875" cy="70" r="7"/>
<g>
	<line fill="none" stroke="#FFFFFF" stroke-width="2" stroke-miterlimit="10" x1="19.875" y1="70" x2="29.875" y2="70"/>
	<line fill="none" stroke="#FFFFFF" stroke-width="2" stroke-miterlimit="10" x1="24.875" y1="75" x2="24.875" y2="65"/>
</g>
<circle fill="#AFD362" cx="10" cy="10" r="7"/>
<g>
	<line fill="none" stroke="#FFFFFF" stroke-width="2" stroke-miterlimit="10" x1="5" y1="10" x2="15" y2="10"/>
	<line fill="none" stroke="#FFFFFF" stroke-width="2" stroke-miterlimit="10" x1="10" y1="15" x2="10" y2="5"/>
</g>
<circle fill="#E8D24F" cx="38.875" cy="69.375" r="7"/>
<circle fill="#DBE27F" cx="60.702" cy="69.062" r="7"/>
<circle fill="#DBE27F" cx="74.702" cy="69.688" r="7"/>
<circle fill="#DBE27F" cx="88.702" cy="69.062" r="7"/>
<g>
	<line fill="none" stroke="#FFFFFF" stroke-width="2" stroke-miterlimit="10" x1="35.339" y1="72.911" x2="42.411" y2="65.839"/>
	<line fill="none" stroke="#FFFFFF" stroke-width="2" stroke-miterlimit="10" x1="42.411" y1="72.911" x2="35.339" y2="65.839"/>
</g>
<circle fill="#A0BA31" cx="10.25" cy="53.875" r="7"/>
<g>
	<line fill="none" stroke="#FFFFFF" stroke-width="2" stroke-miterlimit="10" x1="5.25" y1="53.875" x2="15.25" y2="53.875"/>
	<path fill="none" stroke="#FFFFFF" stroke-width="2" stroke-miterlimit="10" d="M10.25,48.875"/>
	<path fill="none" stroke="#FFFFFF" stroke-width="2" stroke-miterlimit="10" d="M10.25,58.875"/>
</g>
<circle fill="#A0BA31" cx="24.25" cy="54.5" r="7"/>
<g>
	<line fill="none" stroke="#FFFFFF" stroke-width="2" stroke-miterlimit="10" x1="19.25" y1="54.5" x2="29.25" y2="54.5"/>
	<line fill="none" stroke="#FFFFFF" stroke-width="2" stroke-miterlimit="10" x1="24.25" y1="59.5" x2="24.25" y2="49.5"/>
</g>
<circle fill="#A0BA31" cx="22.25" cy="28" r="7"/>
<circle fill="#DD9F33" cx="38.25" cy="53.875" r="7"/>
<g>
	<line fill="none" stroke="#FFFFFF" stroke-width="2" stroke-miterlimit="10" x1="34.714" y1="57.411" x2="41.786" y2="50.339"/>
	<line fill="none" stroke="#FFFFFF" stroke-width="2" stroke-miterlimit="10" x1="41.786" y1="57.411" x2="34.714" y2="50.339"/>
</g>
<rect x="19.25" y="25" fill="none" stroke="#FFFFFF" stroke-width="2" stroke-miterlimit="10" width="6" height="6"/>
<g>
	<circle fill="#AFD362" cx="52" cy="35" r="7"/>
	<rect x="49" y="32" fill="none" stroke="#FFFFFF" stroke-width="2" stroke-miterlimit="10" width="6" height="6"/>
</g>
</svg>
