<?xml version="1.0" encoding="utf-8"?>
<!-- Generator: Adobe Illustrator 17.0.0, SVG Export Plug-In . SVG Version: 6.00 Build 0)  -->
<!DOCTYPE svg PUBLIC "-//W3C//DTD SVG 1.1//EN" "http://www.w3.org/Graphics/SVG/1.1/DTD/svg11.dtd">
<svg version="1.1" id="图层_1" xmlns="http://www.w3.org/2000/svg" xmlns:xlink="http://www.w3.org/1999/xlink" x="0px" y="0px"
	 width="20px" height="20px" viewBox="0 0 20 20" enable-background="new 0 0 20 20" xml:space="preserve">
<circle fill="#AFD362" cx="-111.125" cy="174.375" r="7"/>
<g>
	
		<line fill="none" stroke="#FFFFFF" stroke-width="2" stroke-miterlimit="10" x1="-116.125" y1="174.375" x2="-106.125" y2="174.375"/>
	<path fill="none" stroke="#FFFFFF" stroke-width="2" stroke-miterlimit="10" d="M-111.125,169.375"/>
	<path fill="none" stroke="#FFFFFF" stroke-width="2" stroke-miterlimit="10" d="M-111.125,179.375"/>
</g>
<circle fill="#AFD362" cx="-97.125" cy="175" r="7"/>
<g>
	<line fill="none" stroke="#FFFFFF" stroke-width="2" stroke-miterlimit="10" x1="-102.125" y1="175" x2="-92.125" y2="175"/>
	<line fill="none" stroke="#FFFFFF" stroke-width="2" stroke-miterlimit="10" x1="-97.125" y1="180" x2="-97.125" y2="170"/>
</g>
<circle fill="#E8D24F" cx="17.874" cy="104.327" r="7"/>
<circle fill="#DBE27F" cx="-61.298" cy="174.062" r="7"/>
<circle fill="#DBE27F" cx="-47.298" cy="174.688" r="7"/>
<circle fill="#DBE27F" cx="-33.298" cy="174.062" r="7"/>
<circle opacity="0.2" fill="#DBE27F" enable-background="new    " cx="10" cy="10" r="6.5"/>
<g>
	<line fill="none" stroke="#FFFFFF" stroke-width="2" stroke-miterlimit="10" x1="14.338" y1="107.863" x2="21.41" y2="100.791"/>
	<line fill="none" stroke="#FFFFFF" stroke-width="2" stroke-miterlimit="10" x1="21.41" y1="107.863" x2="14.338" y2="100.791"/>
</g>
<circle fill="#A0BA31" cx="-111.75" cy="158.875" r="7"/>
<g>
	
		<line fill="none" stroke="#FFFFFF" stroke-width="2" stroke-miterlimit="10" x1="-116.75" y1="158.875" x2="-106.75" y2="158.875"/>
	<path fill="none" stroke="#FFFFFF" stroke-width="2" stroke-miterlimit="10" d="M-111.75,153.875"/>
	<path fill="none" stroke="#FFFFFF" stroke-width="2" stroke-miterlimit="10" d="M-111.75,163.875"/>
</g>
<circle fill="#A0BA31" cx="-97.75" cy="159.5" r="7"/>
<g>
	<line fill="none" stroke="#FFFFFF" stroke-width="2" stroke-miterlimit="10" x1="-102.75" y1="159.5" x2="-92.75" y2="159.5"/>
	<line fill="none" stroke="#FFFFFF" stroke-width="2" stroke-miterlimit="10" x1="-97.75" y1="164.5" x2="-97.75" y2="154.5"/>
</g>
<circle fill="#A0BA31" cx="-99.75" cy="133" r="7"/>
<circle fill="#DD9F33" cx="-83.75" cy="158.875" r="7"/>
<g>
	
		<line fill="none" stroke="#FFFFFF" stroke-width="2" stroke-miterlimit="10" x1="-87.286" y1="162.411" x2="-80.214" y2="155.339"/>
	
		<line fill="none" stroke="#FFFFFF" stroke-width="2" stroke-miterlimit="10" x1="-80.214" y1="162.411" x2="-87.286" y2="155.339"/>
</g>
<rect x="-102.75" y="130" fill="none" stroke="#FFFFFF" stroke-width="2" stroke-miterlimit="10" width="6" height="6"/>
<g>
	<circle fill="#AFD362" cx="-70" cy="140" r="7"/>
	<rect x="-73" y="137" fill="none" stroke="#FFFFFF" stroke-width="2" stroke-miterlimit="10" width="6" height="6"/>
</g>
<circle opacity="0.4" fill="none" stroke="#AFD362" stroke-miterlimit="10" enable-background="new    " cx="10" cy="10" r="6.5"/>
</svg>
