<?xml version="1.0" encoding="utf-8"?>
<!-- Generator: Adobe Illustrator 17.0.0, SVG Export Plug-In . SVG Version: 6.00 Build 0)  -->
<!DOCTYPE svg PUBLIC "-//W3C//DTD SVG 1.1//EN" "http://www.w3.org/Graphics/SVG/1.1/DTD/svg11.dtd">
<svg version="1.1"
	 id="图层_1" xmlns:cc="http://creativecommons.org/ns#" xmlns:sodipodi="http://sodipodi.sourceforge.net/DTD/sodipodi-0.dtd" xmlns:inkscape="http://www.inkscape.org/namespaces/inkscape" xmlns:dc="http://purl.org/dc/elements/1.1/" xmlns:svg="http://www.w3.org/2000/svg" xmlns:rdf="http://www.w3.org/1999/02/22-rdf-syntax-ns#" inkscape:version="0.48.4 r9939" sodipodi:docname="checkbox-checked.svg"
	 xmlns="http://www.w3.org/2000/svg" xmlns:xlink="http://www.w3.org/1999/xlink" x="0px" y="0px" width="16px" height="16px"
	 viewBox="0 0 16 16" enable-background="new 0 0 16 16" xml:space="preserve">
<sodipodi:namedview  inkscape:zoom="14.75" gridtolerance="10" objecttolerance="10" bordercolor="#666666" guidetolerance="10" showgrid="false" borderopacity="1" inkscape:cy="8" id="namedview21" inkscape:cx="8" pagecolor="#ffffff" inkscape:window-y="0" inkscape:window-x="0" inkscape:pageshadow="2" inkscape:window-maximized="1" inkscape:current-layer="图层_1" inkscape:pageopacity="0" inkscape:window-height="1117" inkscape:window-width="1920">
	</sodipodi:namedview>
<g id="g3" opacity="0.6">
	
		<linearGradient id="path10_1_" gradientUnits="userSpaceOnUse" x1="278" y1="726.5" x2="278" y2="711.5" gradientTransform="matrix(1 0 0 1 -270 -711)">
		<stop  offset="0" style="stop-color:#FFFFFF"/>
		<stop  offset="1" style="stop-color:#B5B5B5"/>
	</linearGradient>
	<path id="path10" fill="url(#path10_1_)" stroke="#000102" stroke-miterlimit="10" d="M15.5,11.949
		c0,1.961-1.512,3.551-3.379,3.551H3.879c-1.866,0-3.379-1.59-3.379-3.551V4.051C0.5,2.09,2.013,0.5,3.879,0.5h8.241
		c1.868,0,3.38,1.59,3.38,3.551V11.949z"/>
	<path id="path12" d="M11.807,3.673L6.615,8.865L4.193,6.443l-1.731,1.73l4.154,4.154l6.924-6.924L11.807,3.673z"/>
	
		<linearGradient id="path19_1_" gradientUnits="userSpaceOnUse" x1="278.7404" y1="726.0966" x2="273.1925" y2="711.1577" gradientTransform="matrix(1 0 0 1 -270 -711)">
		<stop  offset="0" style="stop-color:#FFFFFF;stop-opacity:0"/>
		<stop  offset="1" style="stop-color:#FFFFFF;stop-opacity:0.6"/>
	</linearGradient>
	<path id="path19" fill="url(#path19_1_)" d="M10.148,1.129h-5.97c-1.71,0-3.096,1.456-3.096,3.254v7.235
		c0,1.796,1.386,3.254,3.096,3.254h1.358C5.854,9.195,7.605,4.256,10.148,1.129z"/>
</g>
</svg>
