<?xml version="1.0" encoding="utf-8"?>
<!-- Generator: Adobe Illustrator 17.0.0, SVG Export Plug-In . SVG Version: 6.00 Build 0)  -->
<!DOCTYPE svg PUBLIC "-//W3C//DTD SVG 1.1//EN" "http://www.w3.org/Graphics/SVG/1.1/DTD/svg11.dtd">
<svg version="1.1"
	 id="svg2" xmlns:svg="http://www.w3.org/2000/svg" xmlns:cc="http://creativecommons.org/ns#" xmlns:sodipodi="http://sodipodi.sourceforge.net/DTD/sodipodi-0.dtd" xmlns:dc="http://purl.org/dc/elements/1.1/" xmlns:rdf="http://www.w3.org/1999/02/22-rdf-syntax-ns#" xmlns:inkscape="http://www.inkscape.org/namespaces/inkscape" inkscape:export-ydpi="90" inkscape:export-xdpi="90" inkscape:export-filename="/usr/share/themes/Gnome-Cupertino/gtk-3.0/assets/switch-off.png" inkscape:version="0.48.4 r9939" sodipodi:docname="switch-dark-on.svg"
	 xmlns="http://www.w3.org/2000/svg" xmlns:xlink="http://www.w3.org/1999/xlink" x="0px" y="0px" width="56px" height="20px"
	 viewBox="0 0 56 20" enable-background="new 0 0 56 20" xml:space="preserve">
<sodipodi:namedview  objecttolerance="10" bordercolor="#666666" showgrid="false" inkscape:cx="7.5021097" inkscape:zoom="8.4642857" guidetolerance="10" pagecolor="#ffffff" inkscape:cy="10" borderopacity="1" gridtolerance="10" id="namedview58" inkscape:window-width="1920" inkscape:current-layer="svg2" inkscape:pageshadow="2" inkscape:window-maximized="1" inkscape:window-height="1117" inkscape:window-y="0" inkscape:window-x="0" inkscape:pageopacity="0">
	</sodipodi:namedview>
<g id="g3826" opacity="0.5">
	<g id="g3">
		
			<linearGradient id="path12_1_" gradientUnits="userSpaceOnUse" x1="325.8125" y1="-385.5" x2="325.8125" y2="-368.5" gradientTransform="matrix(1 0 0 -1 -298 -367)">
			<stop  offset="0" style="stop-color:#5AAEE1"/>
			<stop  offset="0.7127" style="stop-color:#0064B1"/>
			<stop  offset="1" style="stop-color:#003993"/>
		</linearGradient>
		<path id="path12" fill="url(#path12_1_)" stroke="#111111" stroke-width="1.0714" stroke-miterlimit="10" d="M52.48,10
			c0,4.694-3.8,8.5-8.488,8.5H11.633c-4.688,0-8.488-3.806-8.488-8.5l0,0c0-4.694,3.8-8.5,8.488-8.5h32.36
			C48.68,1.5,52.48,5.306,52.48,10L52.48,10z"/>
		
			<linearGradient id="path19_1_" gradientUnits="userSpaceOnUse" x1="325.8125" y1="-384.937" x2="325.8125" y2="-369.061" gradientTransform="matrix(1 0 0 -1 -298 -367)">
			<stop  offset="0" style="stop-color:#000000;stop-opacity:0.6"/>
			<stop  offset="1" style="stop-color:#000000"/>
		</linearGradient>
		<path id="path19" opacity="0.2" fill="none" stroke="url(#path19_1_)" stroke-miterlimit="10" enable-background="new    " d="
			M11.633,17.437c-4.094,0-7.425-3.337-7.425-7.438s3.331-7.438,7.425-7.438h32.359c4.094,0,7.425,3.336,7.425,7.438
			c0,4.101-3.331,7.438-7.425,7.438H11.633z"/>
		
			<linearGradient id="path26_1_" gradientUnits="userSpaceOnUse" x1="325.8125" y1="-383.875" x2="325.8125" y2="-370.125" gradientTransform="matrix(1 0 0 -1 -298 -367)">
			<stop  offset="0" style="stop-color:#000000;stop-opacity:0.6"/>
			<stop  offset="1" style="stop-color:#000000"/>
		</linearGradient>
		<path id="path26" opacity="0.1" fill="none" stroke="url(#path26_1_)" stroke-miterlimit="10" enable-background="new    " d="
			M11.633,16.375c-3.508,0-6.363-2.86-6.363-6.375s2.855-6.375,6.363-6.375h32.359c3.508,0,6.363,2.86,6.363,6.375
			s-2.854,6.375-6.363,6.375H11.633z"/>
	</g>
	<g id="g38">
		<path id="path40" opacity="0.8" enable-background="new    " d="M43.855,19c-4.962,0-9-4.038-9-9s4.038-9,9-9s9,4.037,9,9
			S48.817,19,43.855,19z M43.855,2.059c-4.379,0-7.941,3.562-7.941,7.941s3.562,7.941,7.941,7.941s7.941-3.562,7.941-7.941
			S48.234,2.059,43.855,2.059z"/>
		<g id="g42">
			
				<linearGradient id="circle49_1_" gradientUnits="userSpaceOnUse" x1="341.855" y1="-385" x2="341.855" y2="-369" gradientTransform="matrix(1 0 0 -1 -298 -367)">
				<stop  offset="0" style="stop-color:#464342"/>
				<stop  offset="1" style="stop-color:#1E1E1E"/>
			</linearGradient>
			<circle id="circle49" fill="url(#circle49_1_)" cx="43.855" cy="10" r="8"/>
			
				<linearGradient id="ellipse56_1_" gradientUnits="userSpaceOnUse" x1="341.855" y1="-384.694" x2="341.855" y2="-369.306" gradientTransform="matrix(1 0 0 -1 -298 -367)">
				<stop  offset="0" style="stop-color:#FFFFFF;stop-opacity:0.5"/>
				<stop  offset="1" style="stop-color:#FFFFFF"/>
			</linearGradient>
			
				<ellipse id="ellipse56" opacity="0.1" fill="none" stroke="url(#ellipse56_1_)" stroke-miterlimit="10" enable-background="new    " cx="43.855" cy="10" rx="7.187" ry="7.194"/>
		</g>
	</g>
</g>
<g opacity="0.5">
	<g opacity="0.3">
		<path d="M18,13.999c-2.757,0-5-2.243-5-5s2.243-5,5-5s5,2.243,5,5S20.757,13.999,18,13.999z M18,5.999c-1.654,0-3,1.346-3,3
			s1.346,3,3,3s3-1.346,3-3S19.654,5.999,18,5.999z"/>
	</g>
	<g>
		<g>
			<path fill="#FFFFFF" d="M18,14.999c-2.757,0-5-2.243-5-5s2.243-5,5-5s5,2.243,5,5S20.757,14.999,18,14.999z M18,6.999
				c-1.654,0-3,1.346-3,3s1.346,3,3,3s3-1.346,3-3S19.654,6.999,18,6.999z"/>
		</g>
	</g>
</g>
</svg>
