<?xml version="1.0" encoding="utf-8"?>
<!-- Generator: Adobe Illustrator 17.0.0, SVG Export Plug-In . SVG Version: 6.00 Build 0)  -->
<!DOCTYPE svg PUBLIC "-//W3C//DTD SVG 1.1//EN" "http://www.w3.org/Graphics/SVG/1.1/DTD/svg11.dtd">
<svg version="1.1"
	 id="图层_1" xmlns:svg="http://www.w3.org/2000/svg" xmlns:cc="http://creativecommons.org/ns#" xmlns:sodipodi="http://sodipodi.sourceforge.net/DTD/sodipodi-0.dtd" xmlns:dc="http://purl.org/dc/elements/1.1/" xmlns:rdf="http://www.w3.org/1999/02/22-rdf-syntax-ns#" xmlns:inkscape="http://www.inkscape.org/namespaces/inkscape" sodipodi:docname="radio-selected.svg" inkscape:version="0.48.4 r9939"
	 xmlns="http://www.w3.org/2000/svg" xmlns:xlink="http://www.w3.org/1999/xlink" x="0px" y="0px" width="16px" height="16px"
	 viewBox="0 0 16 16" enable-background="new 0 0 16 16" xml:space="preserve">
<sodipodi:namedview  borderopacity="1" gridtolerance="10" guidetolerance="10" inkscape:cy="8" bordercolor="#666666" inkscape:cx="8" inkscape:zoom="14.75" pagecolor="#ffffff" objecttolerance="10" showgrid="false" id="namedview21" inkscape:pageopacity="0" inkscape:window-x="0" inkscape:window-y="0" inkscape:window-height="480" inkscape:window-maximized="0" inkscape:window-width="716" inkscape:pageshadow="2" inkscape:current-layer="图层_1">
	</sodipodi:namedview>
<path opacity="0.6" fill="#ADC64D" enable-background="new    " d="M8,16c-4.411,0-8-3.589-8-8s3.589-8,8-8s8,3.589,8,8
	S12.411,16,8,16z M8,1C4.14,1,1,4.14,1,8c0,3.859,3.14,7,7,7c3.859,0,7-3.141,7-7C15,4.14,11.859,1,8,1z"/>
<path opacity="0.6" fill="#FFFFFF" d="M8,1C4.14,1,1,4.14,1,8c0,3.859,3.14,7,7,7c3.859,0,7-3.141,7-7C15,4.14,11.859,1,8,1z"/>
<circle opacity="0.6" fill="#ADC64D" enable-background="new    " cx="8" cy="8" r="4.388"/>
</svg>
