<?xml version="1.0" encoding="utf-8"?>
<!-- Generator: Adobe Illustrator 17.0.0, SVG Export Plug-In . SVG Version: 6.00 Build 0)  -->
<!DOCTYPE svg PUBLIC "-//W3C//DTD SVG 1.1//EN" "http://www.w3.org/Graphics/SVG/1.1/DTD/svg11.dtd">
<svg version="1.1" id="图层_1" xmlns="http://www.w3.org/2000/svg" xmlns:xlink="http://www.w3.org/1999/xlink" x="0px" y="0px"
	 width="16px" height="16px" viewBox="0 0 16 16" enable-background="new 0 0 16 16" xml:space="preserve">
<g>
	
		<linearGradient id="SVGID_1_" gradientUnits="userSpaceOnUse" x1="556" y1="790" x2="556" y2="776" gradientTransform="matrix(1 0 0 1 -548 -775)">
		<stop  offset="0" style="stop-color:#B1F8FF"/>
		<stop  offset="1" style="stop-color:#84DEFF"/>
	</linearGradient>
	<path fill="url(#SVGID_1_)" d="M3.879,1C2.292,1,1,2.369,1,4.051v7.898C1,13.632,2.292,15,3.879,15h8.242
		C13.709,15,15,13.632,15,11.949V4.051C15,2.369,13.708,1,12.12,1H3.879z"/>
	<path opacity="0.8" fill="#000102" enable-background="new    " d="M12.121,16H3.879C1.74,16,0,14.183,0,11.949V4.051
		C0,1.817,1.74,0,3.879,0h8.241C14.26,0,16,1.817,16,4.051v7.898C16,14.183,14.26,16,12.121,16z M3.879,1C2.292,1,1,2.369,1,4.051
		v7.898C1,13.632,2.292,15,3.879,15h8.242C13.709,15,15,13.632,15,11.949V4.051C15,2.369,13.708,1,12.12,1H3.879z"/>
	<path id="path12" opacity="0.9" enable-background="new    " d="M5.528,11C5.237,11,5,10.717,5,10.369V5.631
		C5,5.283,5.237,5,5.528,5h4.945C10.759,5,11,5.289,11,5.631v4.737C11,10.717,10.763,11,10.472,11H5.528z"/>
	
		<linearGradient id="SVGID_2_" gradientUnits="userSpaceOnUse" x1="900.7404" y1="-1600.0966" x2="895.1925" y2="-1585.1577" gradientTransform="matrix(1 0 0 -1 -892 -1585)">
		<stop  offset="0" style="stop-color:#FFFFFF;stop-opacity:0"/>
		<stop  offset="1" style="stop-color:#FFFFFF;stop-opacity:0.6"/>
	</linearGradient>
	<path fill="url(#SVGID_2_)" d="M10.148,1.129h-5.97c-1.71,0-3.096,1.456-3.096,3.254v7.235c0,1.796,1.386,3.254,3.096,3.254h1.358
		C5.854,9.195,7.605,4.256,10.148,1.129z"/>
</g>
</svg>
