<?xml version="1.0" encoding="UTF-8" standalone="no"?>
<!-- Generator: Adobe Illustrator 17.0.0, SVG Export Plug-In . SVG Version: 6.00 Build 0)  -->

<svg
   xmlns:dc="http://purl.org/dc/elements/1.1/"
   xmlns:cc="http://creativecommons.org/ns#"
   xmlns:rdf="http://www.w3.org/1999/02/22-rdf-syntax-ns#"
   xmlns:svg="http://www.w3.org/2000/svg"
   xmlns="http://www.w3.org/2000/svg"
   xmlns:sodipodi="http://sodipodi.sourceforge.net/DTD/sodipodi-0.dtd"
   xmlns:inkscape="http://www.inkscape.org/namespaces/inkscape"
   version="1.1"
   id="图层_1"
   x="0px"
   y="0px"
   width="16px"
   height="16px"
   viewBox="-1 -1 16 16"
   enable-background="new -1 -1 16 16"
   xml:space="preserve"
   inkscape:version="0.48.4 r9939"
   sodipodi:docname="checkbox-checked.svg"><metadata
     id="metadata25"><rdf:RDF><cc:Work
         rdf:about=""><dc:format>image/svg+xml</dc:format><dc:type
           rdf:resource="http://purl.org/dc/dcmitype/StillImage" /><dc:title></dc:title></cc:Work></rdf:RDF></metadata><defs
     id="defs23" /><sodipodi:namedview
     pagecolor="#ffffff"
     bordercolor="#666666"
     borderopacity="1"
     objecttolerance="10"
     gridtolerance="10"
     guidetolerance="10"
     inkscape:pageopacity="0"
     inkscape:pageshadow="2"
     inkscape:window-width="1920"
     inkscape:window-height="1117"
     id="namedview21"
     showgrid="false"
     inkscape:zoom="14.75"
     inkscape:cx="8"
     inkscape:cy="8"
     inkscape:window-x="0"
     inkscape:window-y="0"
     inkscape:window-maximized="1"
     inkscape:current-layer="图层_1" /><g
     id="g3"
     style="opacity:0.6"><linearGradient
       id="SVGID_1_"
       gradientUnits="userSpaceOnUse"
       x1="3"
       y1="-297.5"
       x2="3"
       y2="-282.5"
       gradientTransform="matrix(1 0 0 -1 4 -283)"><stop
         offset="0"
         style="stop-color:#FFFFFF"
         id="stop6" /><stop
         offset="1"
         style="stop-color:#B5B5B5"
         id="stop8" /></linearGradient><path
       fill="url(#SVGID_1_)"
       stroke="#000102"
       stroke-miterlimit="10"
       d="M14.5,10.949c0,1.961-1.512,3.551-3.379,3.551H2.879   c-1.866,0-3.379-1.59-3.379-3.551V3.051C-0.5,1.09,1.013-0.5,2.879-0.5h8.241c1.868,0,3.38,1.59,3.38,3.551V10.949z"
       id="path10" /><path
       d="M10.807,2.673L5.615,7.865L3.193,5.443l-1.731,1.73l4.154,4.154l6.924-6.924L10.807,2.673z"
       id="path12" /><linearGradient
       id="SVGID_2_"
       gradientUnits="userSpaceOnUse"
       x1="3.74"
       y1="-297.0968"
       x2="-1.8079"
       y2="-282.1579"
       gradientTransform="matrix(1 0 0 -1 4 -283)"><stop
         offset="0"
         style="stop-color:#FFFFFF;stop-opacity:0"
         id="stop15" /><stop
         offset="1"
         style="stop-color:#FFFFFF;stop-opacity:0.6"
         id="stop17" /></linearGradient><path
       fill="url(#SVGID_2_)"
       d="M9.148,0.129h-5.97c-1.71,0-3.096,1.456-3.096,3.254v7.235c0,1.796,1.386,3.254,3.096,3.254h1.358   C4.854,8.195,6.605,3.256,9.148,0.129z"
       id="path19" /></g></svg>