<?xml version="1.0" encoding="utf-8"?>
<!-- Generator: Adobe Illustrator 17.0.0, SVG Export Plug-In . SVG Version: 6.00 Build 0)  -->
<!DOCTYPE svg PUBLIC "-//W3C//DTD SVG 1.1//EN" "http://www.w3.org/Graphics/SVG/1.1/DTD/svg11.dtd">
<svg version="1.1" id="图层_1" xmlns="http://www.w3.org/2000/svg" xmlns:xlink="http://www.w3.org/1999/xlink" x="0px" y="0px"
	 width="16px" height="16px" viewBox="0 0 16 16" enable-background="new 0 0 16 16" xml:space="preserve">
<linearGradient id="SVGID_1_" gradientUnits="userSpaceOnUse" x1="556" y1="789.533" x2="556" y2="776.467" gradientTransform="matrix(1 0 0 1 -548 -775)">
	<stop  offset="0" style="stop-color:#B1F8FF"/>
	<stop  offset="1" style="stop-color:#84DEFF"/>
</linearGradient>
<path fill="url(#SVGID_1_)" d="M8,1.467c-3.603,0-6.533,2.93-6.533,6.533c0,3.602,2.931,6.533,6.533,6.533S14.533,11.601,14.533,8
	C14.533,4.397,11.602,1.467,8,1.467z"/>
<circle opacity="0.6" fill="none" stroke="#000102" stroke-miterlimit="10" enable-background="new    " cx="8" cy="8" r="7"/>
<path opacity="0.5" fill="none" stroke="#FFFFFF" stroke-miterlimit="10" enable-background="new    " d="M8,14
	c-3.309,0-6-2.691-6-6s2.691-6,6-6s6,2.691,6,6S11.309,14,8,14z"/>
<circle opacity="0.9" enable-background="new    " cx="8" cy="8" r="3"/>
<linearGradient id="SVGID_2_" gradientUnits="userSpaceOnUse" x1="1446.3293" y1="2250.5237" x2="1443.5049" y2="2238.4392" gradientTransform="matrix(1 0 0 1 -1438 -2237)">
	<stop  offset="0" style="stop-color:#FFFFFF;stop-opacity:0"/>
	<stop  offset="1" style="stop-color:#FFFFFF;stop-opacity:0.6"/>
</linearGradient>
<path fill="url(#SVGID_2_)" d="M11.569,2.705C10.524,1.972,9.253,1.539,7.88,1.539c-3.556,0-6.44,2.883-6.44,6.44
	c0,2.706,1.67,5.017,4.033,5.97C6.451,9.266,8.645,5.291,11.569,2.705z"/>
</svg>
