<?xml version="1.0" encoding="utf-8"?>
<!-- Generator: Adobe Illustrator 17.0.0, SVG Export Plug-In . SVG Version: 6.00 Build 0)  -->
<!DOCTYPE svg PUBLIC "-//W3C//DTD SVG 1.1//EN" "http://www.w3.org/Graphics/SVG/1.1/DTD/svg11.dtd">
<svg version="1.1"
	 id="图层_1" xmlns:cc="http://creativecommons.org/ns#" xmlns:sodipodi="http://sodipodi.sourceforge.net/DTD/sodipodi-0.dtd" xmlns:inkscape="http://www.inkscape.org/namespaces/inkscape" xmlns:dc="http://purl.org/dc/elements/1.1/" xmlns:svg="http://www.w3.org/2000/svg" xmlns:rdf="http://www.w3.org/1999/02/22-rdf-syntax-ns#" inkscape:version="0.48.4 r9939" sodipodi:docname="radio-mixed.svg"
	 xmlns="http://www.w3.org/2000/svg" xmlns:xlink="http://www.w3.org/1999/xlink" x="0px" y="0px" width="16px" height="16px"
	 viewBox="0 0 16 16" enable-background="new 0 0 16 16" xml:space="preserve">
<sodipodi:namedview  inkscape:zoom="14.75" gridtolerance="10" objecttolerance="10" bordercolor="#666666" guidetolerance="10" showgrid="false" borderopacity="1" inkscape:cy="8" id="namedview21" inkscape:cx="-12.033898" pagecolor="#ffffff" inkscape:window-y="388" inkscape:window-x="769" inkscape:pageshadow="2" inkscape:window-maximized="0" inkscape:current-layer="图层_1" inkscape:pageopacity="0" inkscape:window-height="429" inkscape:window-width="689">
	</sodipodi:namedview>
<g>
	
		<linearGradient id="circle10_1_" gradientUnits="userSpaceOnUse" x1="850" y1="1477" x2="850" y2="1463" gradientTransform="matrix(1 0 0 1 -842 -1462)">
		<stop  offset="0" style="stop-color:#FFFFFF;stop-opacity:0"/>
		<stop  offset="1" style="stop-color:#000000;stop-opacity:0.1"/>
	</linearGradient>
	
		<circle id="circle10" sodipodi:rx="7.5" sodipodi:ry="7.5" sodipodi:cy="7" sodipodi:cx="7" opacity="0.6" fill="url(#circle10_1_)" stroke="#000102" stroke-miterlimit="10" enable-background="new    " cx="8" cy="8" r="7">
	</circle>
	<path id="path12" inkscape:connector-curvature="0" opacity="0.6" enable-background="new    " d="M5.528,11
		C5.237,11,5,10.717,5,10.369V5.631C5,5.283,5.237,5,5.528,5h4.945C10.759,5,11,5.289,11,5.631v4.738
		c0,0.349-0.236,0.632-0.528,0.632L5.528,11L5.528,11z"/>
	
		<linearGradient id="path19_1_" gradientUnits="userSpaceOnUse" x1="851.9153" y1="1475.7927" x2="849.0908" y2="1463.7085" gradientTransform="matrix(1 0 0 1 -843.356 -1462.2034)">
		<stop  offset="0" style="stop-color:#FFFFFF;stop-opacity:0"/>
		<stop  offset="1" style="stop-color:#FFFFFF;stop-opacity:0.6"/>
	</linearGradient>
	<path id="path19" inkscape:connector-curvature="0" fill="url(#path19_1_)" d="M11.799,2.771C10.753,2.038,9.483,1.605,8.11,1.605
		c-3.556,0-6.44,2.883-6.44,6.44c0,2.706,1.67,5.017,4.033,5.97C6.68,9.332,8.875,5.356,11.799,2.771z"/>
</g>
<linearGradient id="circle22_1_" gradientUnits="userSpaceOnUse" x1="878.662" y1="1454" x2="878.662" y2="1439" gradientTransform="matrix(1 0 0 1 -842 -1462)">
	<stop  offset="0" style="stop-color:#FFFFFF;stop-opacity:0"/>
	<stop  offset="1" style="stop-color:#000000;stop-opacity:0.1"/>
</linearGradient>
<circle id="circle22" opacity="0.7" fill="url(#circle22_1_)" stroke="#000102" stroke-miterlimit="10" enable-background="new    " cx="36.662" cy="-15.5" r="7.5"/>
</svg>
