<?xml version="1.0" encoding="utf-8"?>
<!-- Generator: Adobe Illustrator 17.0.0, SVG Export Plug-In . SVG Version: 6.00 Build 0)  -->
<!DOCTYPE svg PUBLIC "-//W3C//DTD SVG 1.1//EN" "http://www.w3.org/Graphics/SVG/1.1/DTD/svg11.dtd">
<svg version="1.1" id="图层_1" xmlns="http://www.w3.org/2000/svg" xmlns:xlink="http://www.w3.org/1999/xlink" x="0px" y="0px"
	 width="16px" height="16px" viewBox="0 0 16 16" enable-background="new 0 0 16 16" xml:space="preserve">
<g>
	
		<linearGradient id="SVGID_1_" gradientUnits="userSpaceOnUse" x1="282" y1="-361.5333" x2="282" y2="-348.4667" gradientTransform="matrix(1 0 0 -1 -274 -347)">
		<stop  offset="0" style="stop-color:#B1F8FF"/>
		<stop  offset="1" style="stop-color:#00B7FF"/>
	</linearGradient>
	<path fill="url(#SVGID_1_)" d="M8,1.467C4.397,1.467,1.467,4.397,1.467,8c0,3.602,2.931,6.533,6.533,6.533
		c3.602,0,6.533-2.932,6.533-6.533C14.533,4.397,11.602,1.467,8,1.467z"/>
	
		<linearGradient id="SVGID_2_" gradientUnits="userSpaceOnUse" x1="1172.3296" y1="-1822.5236" x2="1169.5051" y2="-1810.4392" gradientTransform="matrix(1 0 0 -1 -1164 -1809)">
		<stop  offset="0" style="stop-color:#FFFFFF;stop-opacity:0"/>
		<stop  offset="1" style="stop-color:#FFFFFF;stop-opacity:0.6"/>
	</linearGradient>
	<path fill="url(#SVGID_2_)" d="M11.569,2.705c-1.045-0.733-2.316-1.166-3.689-1.166c-3.556,0-6.44,2.883-6.44,6.44
		c0,2.706,1.67,5.017,4.033,5.97C6.451,9.266,8.645,5.291,11.569,2.705z"/>
	
		<linearGradient id="SVGID_3_" gradientUnits="userSpaceOnUse" x1="1172" y1="-1824" x2="1172" y2="-1810" gradientTransform="matrix(1 0 0 -1 -1164 -1809)">
		<stop  offset="0" style="stop-color:#FFFFFF;stop-opacity:0"/>
		<stop  offset="1" style="stop-color:#000000;stop-opacity:0.1"/>
	</linearGradient>
	
		<circle opacity="0.8" fill="url(#SVGID_3_)" stroke="#000102" stroke-miterlimit="10" enable-background="new    " cx="8" cy="8" r="7"/>
</g>
</svg>
