<?xml version="1.0" encoding="utf-8"?>
<!-- Generator: Adobe Illustrator 17.0.0, SVG Export Plug-In . SVG Version: 6.00 Build 0)  -->
<!DOCTYPE svg PUBLIC "-//W3C//DTD SVG 1.1//EN" "http://www.w3.org/Graphics/SVG/1.1/DTD/svg11.dtd">
<svg version="1.1" id="图层_1" xmlns="http://www.w3.org/2000/svg" xmlns:xlink="http://www.w3.org/1999/xlink" x="0px" y="0px"
	 width="16px" height="16px" viewBox="0 0 16 16" enable-background="new 0 0 16 16" xml:space="preserve">
<g>
	
		<linearGradient id="SVGID_1_" gradientUnits="userSpaceOnUse" x1="556" y1="788.5997" x2="556" y2="777.4003" gradientTransform="matrix(1 0 0 1 -548 -775)">
		<stop  offset="0" style="stop-color:#B1F8FF"/>
		<stop  offset="1" style="stop-color:#00B7FF"/>
	</linearGradient>
	<path fill="url(#SVGID_1_)" d="M8,2.4C4.912,2.4,2.4,4.912,2.4,8c0,3.087,2.512,5.6,5.6,5.6s5.6-2.513,5.6-5.6
		C13.6,4.912,11.087,2.4,8,2.4z"/>
	<circle opacity="0.9" enable-background="new    " cx="8" cy="8" r="3.51"/>
	
		<linearGradient id="SVGID_2_" gradientUnits="userSpaceOnUse" x1="1446.2823" y1="2249.7346" x2="1443.8613" y2="2239.3765" gradientTransform="matrix(1 0 0 1 -1438 -2237)">
		<stop  offset="0" style="stop-color:#FFFFFF;stop-opacity:0"/>
		<stop  offset="1" style="stop-color:#FFFFFF;stop-opacity:0.6"/>
	</linearGradient>
	<path fill="url(#SVGID_2_)" d="M11.059,3.461c-0.896-0.628-1.985-0.999-3.162-0.999c-3.048,0-5.52,2.471-5.52,5.52
		c0,2.319,1.431,4.3,3.457,5.117C6.672,9.085,8.553,5.678,11.059,3.461z"/>
	
		<linearGradient id="SVGID_3_" gradientUnits="userSpaceOnUse" x1="1446" y1="2251" x2="1446" y2="2239" gradientTransform="matrix(1 0 0 1 -1438 -2237)">
		<stop  offset="0" style="stop-color:#FFFFFF;stop-opacity:0"/>
		<stop  offset="1" style="stop-color:#000000;stop-opacity:0.1"/>
	</linearGradient>
	
		<circle opacity="0.8" fill="url(#SVGID_3_)" stroke="#000102" stroke-miterlimit="10" enable-background="new    " cx="8" cy="8" r="6"/>
</g>
</svg>
