<?xml version="1.0" encoding="UTF-8" standalone="no"?>
<!-- Generator: Adobe Illustrator 17.0.0, SVG Export Plug-In . SVG Version: 6.00 Build 0)  -->

<svg
   xmlns:dc="http://purl.org/dc/elements/1.1/"
   xmlns:cc="http://creativecommons.org/ns#"
   xmlns:rdf="http://www.w3.org/1999/02/22-rdf-syntax-ns#"
   xmlns:svg="http://www.w3.org/2000/svg"
   xmlns="http://www.w3.org/2000/svg"
   xmlns:sodipodi="http://sodipodi.sourceforge.net/DTD/sodipodi-0.dtd"
   xmlns:inkscape="http://www.inkscape.org/namespaces/inkscape"
   version="1.1"
   id="svg2"
   inkscape:version="0.48.4 r9939"
   inkscape:export-xdpi="90"
   sodipodi:docname="switch-dark-off.svg"
   inkscape:export-filename="/usr/share/themes/Gnome-Cupertino/gtk-3.0/assets/switch-off.png"
   inkscape:export-ydpi="90"
   x="0px"
   y="0px"
   width="56px"
   height="20px"
   viewBox="59.583 23.875 56 20"
   enable-background="new 59.583 23.875 56 20"
   xml:space="preserve"><metadata
     id="metadata52"><rdf:RDF><cc:Work
         rdf:about=""><dc:format>image/svg+xml</dc:format><dc:type
           rdf:resource="http://purl.org/dc/dcmitype/StillImage" /><dc:title></dc:title></cc:Work></rdf:RDF></metadata><defs
     id="defs50" /><sodipodi:namedview
     pagecolor="#ffffff"
     bordercolor="#666666"
     borderopacity="1"
     objecttolerance="10"
     gridtolerance="10"
     guidetolerance="10"
     inkscape:pageopacity="0"
     inkscape:pageshadow="2"
     inkscape:window-width="1920"
     inkscape:window-height="1117"
     id="namedview48"
     showgrid="false"
     inkscape:zoom="8.4642857"
     inkscape:cx="7.5021097"
     inkscape:cy="10"
     inkscape:window-x="0"
     inkscape:window-y="0"
     inkscape:window-maximized="1"
     inkscape:current-layer="svg2" /><g
     id="g3029"
     style="opacity:0.5"><g
       id="g3"><linearGradient
         y2="25"
         x2="87.9583"
         y1="42"
         x1="87.9583"
         gradientUnits="userSpaceOnUse"
         id="SVGID_1_"><stop
           id="stop6"
           style="stop-color:#464646"
           offset="0.0158" /><stop
           id="stop8"
           style="stop-color:#1E1E1E"
           offset="1" /></linearGradient><path
         id="path10"
         d="M63.291,33.875   c0,4.694,3.8,8.5,8.488,8.5h32.359c4.688,0,8.488-3.806,8.488-8.5l0,0c0-4.694-3.8-8.5-8.488-8.5H71.779   C67.091,25.375,63.291,29.181,63.291,33.875L63.291,33.875z"
         stroke-miterlimit="10"
         stroke-width="1.0714"
         stroke="#111111"
         fill="url(#SVGID_1_)" /><linearGradient
         gradientTransform="matrix(-1 0 0 1 175.5417 0)"
         y2="25.9375"
         x2="87.5831"
         y1="41.8125"
         x1="87.5831"
         gradientUnits="userSpaceOnUse"
         id="SVGID_2_"><stop
           id="stop13"
           style="stop-color:#000000;stop-opacity:0.6"
           offset="0" /><stop
           id="stop15"
           style="stop-color:#000000"
           offset="1" /></linearGradient><path
         id="path17"
         d="M104.138,41.312   c4.094,0,7.425-3.337,7.425-7.438c0-4.101-3.331-7.438-7.425-7.438H71.779c-4.094,0-7.425,3.336-7.425,7.438   c0,4.101,3.331,7.438,7.425,7.438H104.138z"
         stroke-miterlimit="10"
         stroke="url(#SVGID_2_)"
         fill="none"
         opacity="0.1" /><linearGradient
         gradientTransform="matrix(-1 0 0 1 175.5417 0)"
         y2="27"
         x2="87.5831"
         y1="40.75"
         x1="87.5831"
         gradientUnits="userSpaceOnUse"
         id="SVGID_3_"><stop
           id="stop20"
           style="stop-color:#000000;stop-opacity:0.6"
           offset="0" /><stop
           id="stop22"
           style="stop-color:#000000"
           offset="1" /></linearGradient><path
         id="path24"
         d="M104.138,40.25   c3.508,0,6.363-2.86,6.363-6.375s-2.854-6.375-6.363-6.375H71.779c-3.508,0-6.363,2.86-6.363,6.375s2.854,6.375,6.363,6.375   H104.138z"
         stroke-miterlimit="10"
         stroke="url(#SVGID_3_)"
         fill="none"
         opacity="0.05" /></g><text
       id="text26"
       font-size="12"
       font-family="'Corbel'"
       fill="#898989"
       transform="matrix(0.9986 0 0 1 83.9502 37.6532)">OFF</text>
<g
       id="g28"><path
         id="path30"
         d="M62.916,33.875c0-4.963,4.038-9,9-9c4.962,0,9,4.037,9,9s-4.038,9-9,9   C66.954,42.875,62.916,38.837,62.916,33.875z M63.975,33.875c0,4.379,3.562,7.941,7.941,7.941s7.941-3.562,7.941-7.941   c0-4.379-3.562-7.941-7.941-7.941S63.975,29.496,63.975,33.875z"
         opacity="0.5" /><g
         id="g32"><linearGradient
           gradientTransform="matrix(-1 0 0 1 175.5417 0)"
           y2="25.875"
           x2="103.6256"
           y1="41.875"
           x1="103.6256"
           gradientUnits="userSpaceOnUse"
           id="SVGID_4_"><stop
             id="stop35"
             style="stop-color:#464342"
             offset="0" /><stop
             id="stop37"
             style="stop-color:#1E1E1E"
             offset="1" /></linearGradient><circle
           id="circle39"
           r="8"
           cy="33.875"
           cx="71.916"
           fill="url(#SVGID_4_)" /><linearGradient
           y2="26.1814"
           x2="71.916"
           y1="41.5686"
           x1="71.916"
           gradientUnits="userSpaceOnUse"
           id="SVGID_5_"><stop
             id="stop42"
             style="stop-color:#FFFFFF;stop-opacity:0.5"
             offset="0" /><stop
             id="stop44"
             style="stop-color:#FFFFFF"
             offset="1" /></linearGradient><ellipse
           id="ellipse46"
           ry="7.194"
           rx="7.187"
           cy="33.875"
           cx="71.916"
           stroke-miterlimit="10"
           stroke="url(#SVGID_5_)"
           fill="none"
           opacity="0.1" /></g></g></g></svg>