<?xml version="1.0" encoding="UTF-8"?>
<!DOCTYPE svg PUBLIC "-//W3C//DTD SVG 1.1//EN" "http://www.w3.org/Graphics/SVG/1.1/DTD/svg11.dtd">
<svg version="1.1" xmlns="http://www.w3.org/2000/svg" xmlns:xlink="http://www.w3.org/1999/xlink" x="0px" y="0px" width="56" height="20" viewBox="0, 0, 56, 20">
  <g id="Layer 1">
    <text transform="matrix(0.998, 0, 0, 1, 119.683, -10.337)">
      <tspan x="-11.5" y="3.68" font-family=".LucidaGrandeUI" font-size="12" fill="#898989">OFF</tspan>
    </text>
    <g>
      <g>
        <g>
          <path d="M3.52,10 C3.52,14.694 7.32,18.5 12.008,18.5 L44.367,18.5 C49.055,18.5 52.855,14.694 52.855,10 L52.855,10 C52.855,5.306 49.055,1.5 44.367,1.5 L12.008,1.5 C7.32,1.5 3.52,5.306 3.52,10 L3.52,10 z" fill="url(#Gradient_1)"/>
          <path d="M3.52,10 C3.52,14.694 7.32,18.5 12.008,18.5 L44.367,18.5 C49.055,18.5 52.855,14.694 52.855,10 L52.855,10 C52.855,5.306 49.055,1.5 44.367,1.5 L12.008,1.5 C7.32,1.5 3.52,5.306 3.52,10 L3.52,10 z" fill-opacity="0" stroke="#898989" stroke-width="1.114" stroke-miterlimit="10"/>
        </g>
        <path d="M44.367,17.438 C48.461,17.438 51.792,14.101 51.792,10 C51.792,5.899 48.461,2.562 44.367,2.562 L12.008,2.562 C7.914,2.562 4.583,5.898 4.583,10 C4.583,14.101 7.914,17.438 12.008,17.438 L44.367,17.438 z" fill-opacity="0" stroke="#000000" stroke-width="1" stroke-opacity="0.8" stroke-miterlimit="10" opacity="0.1"/>
        <path d="M44.367,16.375 C47.875,16.375 50.73,13.515 50.73,10 C50.73,6.485 47.876,3.625 44.367,3.625 L12.008,3.625 C8.5,3.625 5.645,6.485 5.645,10 C5.645,13.515 8.499,16.375 12.008,16.375 L44.367,16.375 z" fill-opacity="0" stroke="#000000" stroke-width="1" stroke-opacity="0.8" stroke-miterlimit="10" opacity="0.05"/>
      </g>
      <g>
        <path d="M3.145,10 C3.145,5.037 7.183,1 12.145,1 C17.107,1 21.145,5.037 21.145,10 C21.145,14.963 17.107,19 12.145,19 C7.183,19 3.145,14.962 3.145,10 z M4.204,10 C4.204,14.379 7.766,17.941 12.145,17.941 C16.524,17.941 20.086,14.379 20.086,10 C20.086,5.621 16.524,2.059 12.145,2.059 C7.766,2.059 4.204,5.621 4.204,10 z" fill="#000000" opacity="0.5"/>
        <g>
          <path d="M20.145,10 C20.145,14.418 16.563,18 12.145,18 C7.727,18 4.145,14.418 4.145,10 C4.145,5.582 7.727,2 12.145,2 C16.563,2 20.145,5.582 20.145,10 z" fill="url(#Gradient_2)"/>
          <path d="M19.332,10 C19.332,13.973 16.114,17.194 12.145,17.194 C8.176,17.194 4.958,13.973 4.958,10 C4.958,6.027 8.176,2.806 12.145,2.806 C16.114,2.806 19.332,6.027 19.332,10 z" fill-opacity="0" stroke="#FFFFFF" stroke-width="1" stroke-miterlimit="10"/>
        </g>
      </g>
    </g>
    <path d="M36,5 L36,15" fill-opacity="0" stroke="#898989" stroke-width="2" stroke-miterlimit="10"/>
  </g>
  <defs>
    <linearGradient id="Gradient_1" gradientUnits="userSpaceOnUse" x1="326.188" y1="-385.125" x2="326.188" y2="-368.125" gradientTransform="matrix(1, 0, 0, -1, -298, -367)">
      <stop offset="0" stop-color="#FFFFFF"/>
      <stop offset="0.504" stop-color="#FDFDFD"/>
      <stop offset="0.686" stop-color="#F6F6F6"/>
      <stop offset="0.815" stop-color="#EBEBEB"/>
      <stop offset="0.849" stop-color="#E6E6E6"/>
      <stop offset="1" stop-color="#DCDCDC"/>
    </linearGradient>
    <linearGradient id="Gradient_2" gradientUnits="userSpaceOnUse" x1="-93.603" y1="-385" x2="-93.603" y2="-369" gradientTransform="matrix(-1, 0, 0, -1, -81.458, -367)">
      <stop offset="0" stop-color="#FFFFFF"/>
      <stop offset="0.408" stop-color="#FDFDFD"/>
      <stop offset="0.641" stop-color="#F4F4F4"/>
      <stop offset="0.83" stop-color="#E6E6E6"/>
      <stop offset="0.994" stop-color="#D3D3D3"/>
      <stop offset="1" stop-color="#D2D2D2"/>
    </linearGradient>
  </defs>
</svg>
