<?xml version="1.0" encoding="UTF-8" standalone="no"?>
<!-- Generator: Adobe Illustrator 17.0.0, SVG Export Plug-In . SVG Version: 6.00 Build 0)  -->

<svg
   xmlns:dc="http://purl.org/dc/elements/1.1/"
   xmlns:cc="http://creativecommons.org/ns#"
   xmlns:rdf="http://www.w3.org/1999/02/22-rdf-syntax-ns#"
   xmlns:svg="http://www.w3.org/2000/svg"
   xmlns="http://www.w3.org/2000/svg"
   xmlns:sodipodi="http://sodipodi.sourceforge.net/DTD/sodipodi-0.dtd"
   xmlns:inkscape="http://www.inkscape.org/namespaces/inkscape"
   version="1.1"
   id="svg2"
   inkscape:export-xdpi="90"
   inkscape:export-filename="/usr/share/themes/Gnome-Cupertino/gtk-3.0/assets/switch-off.png"
   inkscape:export-ydpi="90"
   inkscape:version="0.48.4 r9939"
   sodipodi:docname="switch-on.svg"
   x="0px"
   y="0px"
   width="56px"
   height="20px"
   viewBox="0 0 56 20"
   enable-background="new 0 0 56 20"
   xml:space="preserve"><metadata
     id="metadata70"><rdf:RDF><cc:Work
         rdf:about=""><dc:format>image/svg+xml</dc:format><dc:type
           rdf:resource="http://purl.org/dc/dcmitype/StillImage" /><dc:title></dc:title></cc:Work></rdf:RDF></metadata><defs
     id="defs68" /><sodipodi:namedview
     pagecolor="#ffffff"
     bordercolor="#666666"
     borderopacity="1"
     objecttolerance="10"
     gridtolerance="10"
     guidetolerance="10"
     inkscape:pageopacity="0"
     inkscape:pageshadow="2"
     inkscape:window-width="1920"
     inkscape:window-height="1117"
     id="namedview66"
     showgrid="false"
     inkscape:zoom="8.4642857"
     inkscape:cx="7.5021097"
     inkscape:cy="10"
     inkscape:window-x="0"
     inkscape:window-y="0"
     inkscape:window-maximized="1"
     inkscape:current-layer="svg2" /><g
     id="g3047"
     style="opacity:0.5"><g
       id="g3"><linearGradient
         y2="1.5"
         x2="28"
         y1="18.5"
         x1="28"
         gradientUnits="userSpaceOnUse"
         id="SVGID_1_"><stop
           id="stop6"
           style="stop-color:#5AD2FF"
           offset="0" /><stop
           id="stop8"
           style="stop-color:#009DEA"
           offset="0.9265" /><stop
           id="stop10"
           style="stop-color:#006AD5"
           offset="1" /></linearGradient><linearGradient
         y2="1"
         x2="28"
         y1="19"
         x1="28"
         gradientUnits="userSpaceOnUse"
         id="SVGID_2_"><stop
           id="stop13"
           style="stop-color:#036EB8"
           offset="0" /><stop
           id="stop15"
           style="stop-color:#172A88"
           offset="1" /></linearGradient><path
         id="path17"
         d="M52.667,10c0,4.694-3.8,8.5-8.488,8.5H11.82   c-4.688,0-8.488-3.806-8.488-8.5l0,0c0-4.694,3.8-8.5,8.488-8.5H44.18C48.867,1.5,52.667,5.306,52.667,10L52.667,10z"
         stroke-miterlimit="10"
         stroke="url(#SVGID_2_)"
         fill="url(#SVGID_1_)" /><linearGradient
         y2="2.0625"
         x2="27.9997"
         y1="17.9375"
         x1="27.9997"
         gradientUnits="userSpaceOnUse"
         id="SVGID_3_"><stop
           id="stop20"
           style="stop-color:#000000;stop-opacity:0.6"
           offset="0" /><stop
           id="stop22"
           style="stop-color:#000000"
           offset="1" /></linearGradient><path
         id="path24"
         d="M11.82,17.438   c-4.094,0-7.425-3.337-7.425-7.438c0-4.101,3.331-7.438,7.425-7.438h32.359c4.094,0,7.425,3.336,7.425,7.438   c0,4.101-3.331,7.438-7.425,7.438H11.82z"
         stroke-miterlimit="10"
         stroke="url(#SVGID_3_)"
         fill="none"
         opacity="0.2" /><linearGradient
         y2="3.125"
         x2="27.9997"
         y1="16.875"
         x1="27.9997"
         gradientUnits="userSpaceOnUse"
         id="SVGID_4_"><stop
           id="stop27"
           style="stop-color:#000000;stop-opacity:0.6"
           offset="0" /><stop
           id="stop29"
           style="stop-color:#000000"
           offset="1" /></linearGradient><path
         id="path31"
         d="M11.82,16.375c-3.508,0-6.363-2.86-6.363-6.375   s2.854-6.375,6.363-6.375h32.359c3.508,0,6.363,2.86,6.363,6.375s-2.854,6.375-6.363,6.375H11.82z"
         stroke-miterlimit="10"
         stroke="url(#SVGID_4_)"
         fill="none"
         opacity="0.1" /></g><g
       id="g33"><g
         id="g35"
         opacity="0.4"><text
           id="text37"
           font-size="12"
           font-family="'Corbel'"
           transform="matrix(0.9985 0 0 1 11.813 13.2783)">ON</text>
</g><g
         id="g39"><text
           id="text41"
           font-size="12"
           font-family="'Corbel'"
           fill="#FFFFFF"
           transform="matrix(0.9985 0 0 1 11.813 13.7783)">ON</text>
</g></g><g
       id="g43"><path
         id="path45"
         d="M44.042,19c-4.962,0-9-4.038-9-9s4.038-9,9-9s9,4.037,9,9S49.004,19,44.042,19z M44.042,2.059   c-4.379,0-7.941,3.562-7.941,7.941c0,4.379,3.562,7.941,7.941,7.941s7.941-3.562,7.941-7.941   C51.983,5.621,48.421,2.059,44.042,2.059z"
         opacity="0.5" /><g
         id="g47"><linearGradient
           y2="2"
           x2="44.0423"
           y1="18"
           x1="44.0423"
           gradientUnits="userSpaceOnUse"
           id="SVGID_5_"><stop
             id="stop50"
             style="stop-color:#FFFFFF"
             offset="0" /><stop
             id="stop52"
             style="stop-color:#FDFDFD"
             offset="0.408" /><stop
             id="stop54"
             style="stop-color:#F4F4F4"
             offset="0.6411" /><stop
             id="stop56"
             style="stop-color:#E6E6E6"
             offset="0.8296" /><stop
             id="stop58"
             style="stop-color:#D3D3D3"
             offset="0.9941" /><stop
             id="stop60"
             style="stop-color:#D2D2D2"
             offset="1" /></linearGradient><circle
           id="circle62"
           r="8"
           cy="10"
           cx="44.042"
           fill="url(#SVGID_5_)" /><ellipse
           id="ellipse64"
           ry="7.194"
           rx="7.187"
           cy="10"
           cx="44.042"
           stroke-miterlimit="10"
           stroke="#FFFFFF"
           fill="none" /></g></g></g></svg>