<?xml version="1.0" encoding="UTF-8" standalone="no"?>
<!-- Generator: Adobe Illustrator 17.0.0, SVG Export Plug-In . SVG Version: 6.00 Build 0)  -->

<svg
   xmlns:dc="http://purl.org/dc/elements/1.1/"
   xmlns:cc="http://creativecommons.org/ns#"
   xmlns:rdf="http://www.w3.org/1999/02/22-rdf-syntax-ns#"
   xmlns:svg="http://www.w3.org/2000/svg"
   xmlns="http://www.w3.org/2000/svg"
   xmlns:sodipodi="http://sodipodi.sourceforge.net/DTD/sodipodi-0.dtd"
   xmlns:inkscape="http://www.inkscape.org/namespaces/inkscape"
   version="1.1"
   id="svg2"
   inkscape:version="0.48.4 r9939"
   inkscape:export-xdpi="90"
   sodipodi:docname="switch-dark-on.svg"
   inkscape:export-filename="/usr/share/themes/Gnome-Cupertino/gtk-3.0/assets/switch-off.png"
   inkscape:export-ydpi="90"
   x="0px"
   y="0px"
   width="56px"
   height="20px"
   viewBox="0 23.875 56 20"
   enable-background="new 0 23.875 56 20"
   xml:space="preserve"><metadata
     id="metadata62"><rdf:RDF><cc:Work
         rdf:about=""><dc:format>image/svg+xml</dc:format><dc:type
           rdf:resource="http://purl.org/dc/dcmitype/StillImage" /><dc:title></dc:title></cc:Work></rdf:RDF></metadata><defs
     id="defs60" /><sodipodi:namedview
     pagecolor="#ffffff"
     bordercolor="#666666"
     borderopacity="1"
     objecttolerance="10"
     gridtolerance="10"
     guidetolerance="10"
     inkscape:pageopacity="0"
     inkscape:pageshadow="2"
     inkscape:window-width="1920"
     inkscape:window-height="1117"
     id="namedview58"
     showgrid="false"
     inkscape:zoom="8.4642857"
     inkscape:cx="7.5021097"
     inkscape:cy="10"
     inkscape:window-x="0"
     inkscape:window-y="0"
     inkscape:window-maximized="1"
     inkscape:current-layer="svg2" /><g
     id="g3826"
     style="opacity:0.5"><g
       id="g3"><linearGradient
         y2="25.375"
         x2="28"
         y1="42.375"
         x1="28"
         gradientUnits="userSpaceOnUse"
         id="SVGID_1_"><stop
           id="stop6"
           style="stop-color:#5AAEE1"
           offset="0" /><stop
           id="stop8"
           style="stop-color:#0064B1"
           offset="0.7127" /><stop
           id="stop10"
           style="stop-color:#003993"
           offset="1" /></linearGradient><path
         id="path12"
         d="M52.667,33.875   c0,4.694-3.8,8.5-8.488,8.5H11.82c-4.688,0-8.488-3.806-8.488-8.5l0,0c0-4.694,3.8-8.5,8.488-8.5H44.18   C48.867,25.375,52.667,29.181,52.667,33.875L52.667,33.875z"
         stroke-miterlimit="10"
         stroke-width="1.0714"
         stroke="#111111"
         fill="url(#SVGID_1_)" /><linearGradient
         y2="25.9375"
         x2="27.9997"
         y1="41.8125"
         x1="27.9997"
         gradientUnits="userSpaceOnUse"
         id="SVGID_2_"><stop
           id="stop15"
           style="stop-color:#000000;stop-opacity:0.6"
           offset="0" /><stop
           id="stop17"
           style="stop-color:#000000"
           offset="1" /></linearGradient><path
         id="path19"
         d="M11.82,41.312   c-4.094,0-7.425-3.337-7.425-7.438c0-4.101,3.331-7.438,7.425-7.438h32.359c4.094,0,7.425,3.336,7.425,7.438   c0,4.101-3.331,7.438-7.425,7.438H11.82z"
         stroke-miterlimit="10"
         stroke="url(#SVGID_2_)"
         fill="none"
         opacity="0.2" /><linearGradient
         y2="27"
         x2="27.9997"
         y1="40.75"
         x1="27.9997"
         gradientUnits="userSpaceOnUse"
         id="SVGID_3_"><stop
           id="stop22"
           style="stop-color:#000000;stop-opacity:0.6"
           offset="0" /><stop
           id="stop24"
           style="stop-color:#000000"
           offset="1" /></linearGradient><path
         id="path26"
         d="M11.82,40.25c-3.508,0-6.363-2.86-6.363-6.375   S8.312,27.5,11.82,27.5h32.359c3.508,0,6.363,2.86,6.363,6.375s-2.854,6.375-6.363,6.375H11.82z"
         stroke-miterlimit="10"
         stroke="url(#SVGID_3_)"
         fill="none"
         opacity="0.1" /></g><g
       id="g28"><g
         id="g30"
         opacity="0.4"><text
           id="text32"
           font-size="12"
           font-family="'Corbel'"
           transform="matrix(0.9986 0 0 1 11.813 37.1533)">ON</text>
</g><g
         id="g34"><text
           id="text36"
           font-size="12"
           font-family="'Corbel'"
           fill="#FFFFFF"
           transform="matrix(0.9986 0 0 1 11.813 37.6533)">ON</text>
</g></g><g
       id="g38"><path
         id="path40"
         d="M44.042,42.875c-4.962,0-9-4.038-9-9s4.038-9,9-9s9,4.037,9,9S49.004,42.875,44.042,42.875z M44.042,25.934   c-4.379,0-7.941,3.562-7.941,7.941c0,4.379,3.562,7.941,7.941,7.941s7.941-3.562,7.941-7.941   C51.983,29.496,48.421,25.934,44.042,25.934z"
         opacity="0.8" /><g
         id="g42"><linearGradient
           y2="25.875"
           x2="44.0423"
           y1="41.875"
           x1="44.0423"
           gradientUnits="userSpaceOnUse"
           id="SVGID_4_"><stop
             id="stop45"
             style="stop-color:#464342"
             offset="0" /><stop
             id="stop47"
             style="stop-color:#1E1E1E"
             offset="1" /></linearGradient><circle
           id="circle49"
           r="8"
           cy="33.875"
           cx="44.042"
           fill="url(#SVGID_4_)" /><linearGradient
           y2="26.1814"
           x2="44.0423"
           y1="41.5686"
           x1="44.0423"
           gradientUnits="userSpaceOnUse"
           id="SVGID_5_"><stop
             id="stop52"
             style="stop-color:#FFFFFF;stop-opacity:0.5"
             offset="0" /><stop
             id="stop54"
             style="stop-color:#FFFFFF"
             offset="1" /></linearGradient><ellipse
           id="ellipse56"
           ry="7.194"
           rx="7.187"
           cy="33.875"
           cx="44.042"
           stroke-miterlimit="10"
           stroke="url(#SVGID_5_)"
           fill="none"
           opacity="0.1" /></g></g></g></svg>