<?xml version="1.0" encoding="UTF-8" standalone="no"?>
<!-- Generator: Adobe Illustrator 17.0.0, SVG Export Plug-In . SVG Version: 6.00 Build 0)  -->

<svg
   xmlns:dc="http://purl.org/dc/elements/1.1/"
   xmlns:cc="http://creativecommons.org/ns#"
   xmlns:rdf="http://www.w3.org/1999/02/22-rdf-syntax-ns#"
   xmlns:svg="http://www.w3.org/2000/svg"
   xmlns="http://www.w3.org/2000/svg"
   xmlns:sodipodi="http://sodipodi.sourceforge.net/DTD/sodipodi-0.dtd"
   xmlns:inkscape="http://www.inkscape.org/namespaces/inkscape"
   version="1.1"
   id="svg2"
   inkscape:export-xdpi="90"
   inkscape:export-filename="/usr/share/themes/Gnome-Cupertino/gtk-3.0/assets/switch-off.png"
   inkscape:export-ydpi="90"
   inkscape:version="0.48.4 r9939"
   sodipodi:docname="switch-off.svg"
   x="0px"
   y="0px"
   width="56px"
   height="20px"
   viewBox="59.583 0 56 20"
   enable-background="new 59.583 0 56 20"
   xml:space="preserve"><metadata
     id="metadata63"><rdf:RDF><cc:Work
         rdf:about=""><dc:format>image/svg+xml</dc:format><dc:type
           rdf:resource="http://purl.org/dc/dcmitype/StillImage" /><dc:title></dc:title></cc:Work></rdf:RDF></metadata><defs
     id="defs61" /><sodipodi:namedview
     pagecolor="#ffffff"
     bordercolor="#666666"
     borderopacity="1"
     objecttolerance="10"
     gridtolerance="10"
     guidetolerance="10"
     inkscape:pageopacity="0"
     inkscape:pageshadow="2"
     inkscape:window-width="1920"
     inkscape:window-height="1117"
     id="namedview59"
     showgrid="false"
     inkscape:zoom="8.4642857"
     inkscape:cx="7.5021097"
     inkscape:cy="10"
     inkscape:window-x="0"
     inkscape:window-y="0"
     inkscape:window-maximized="1"
     inkscape:current-layer="svg2" /><g
     id="g3040"
     style="opacity:0.5"><g
       id="g3"><linearGradient
         y2="1.125"
         x2="87.9583"
         y1="18.125"
         x1="87.9583"
         gradientUnits="userSpaceOnUse"
         id="SVGID_1_"><stop
           id="stop6"
           style="stop-color:#FFFFFF"
           offset="0" /><stop
           id="stop8"
           style="stop-color:#FDFDFD"
           offset="0.5043" /><stop
           id="stop10"
           style="stop-color:#F6F6F6"
           offset="0.6857" /><stop
           id="stop12"
           style="stop-color:#EBEBEB"
           offset="0.8148" /><stop
           id="stop14"
           style="stop-color:#E6E6E6"
           offset="0.8487" /><stop
           id="stop16"
           style="stop-color:#DCDCDC"
           offset="1" /></linearGradient><path
         id="path18"
         d="M63.291,10   c0,4.694,3.8,8.5,8.488,8.5h32.359c4.688,0,8.488-3.806,8.488-8.5l0,0c0-4.694-3.8-8.5-8.488-8.5H71.779   C67.091,1.5,63.291,5.306,63.291,10L63.291,10z"
         stroke-miterlimit="10"
         stroke-width="1.1144"
         stroke="#898989"
         fill="url(#SVGID_1_)" /><linearGradient
         gradientTransform="matrix(-1 0 0 1 175.5417 0)"
         y2="2.0625"
         x2="87.5831"
         y1="17.9375"
         x1="87.5831"
         gradientUnits="userSpaceOnUse"
         id="SVGID_2_"><stop
           id="stop21"
           style="stop-color:#000000;stop-opacity:0.6"
           offset="0" /><stop
           id="stop23"
           style="stop-color:#000000"
           offset="1" /></linearGradient><path
         id="path25"
         d="M104.138,17.438   c4.094,0,7.425-3.337,7.425-7.438c0-4.101-3.331-7.438-7.425-7.438H71.779c-4.094,0-7.425,3.336-7.425,7.438   c0,4.101,3.331,7.438,7.425,7.438H104.138z"
         stroke-miterlimit="10"
         stroke="url(#SVGID_2_)"
         fill="none"
         opacity="0.1" /><linearGradient
         gradientTransform="matrix(-1 0 0 1 175.5417 0)"
         y2="3.125"
         x2="87.5831"
         y1="16.875"
         x1="87.5831"
         gradientUnits="userSpaceOnUse"
         id="SVGID_3_"><stop
           id="stop28"
           style="stop-color:#000000;stop-opacity:0.6"
           offset="0" /><stop
           id="stop30"
           style="stop-color:#000000"
           offset="1" /></linearGradient><path
         id="path32"
         d="M104.138,16.375   c3.508,0,6.363-2.86,6.363-6.375s-2.854-6.375-6.363-6.375H71.779c-3.508,0-6.363,2.86-6.363,6.375s2.854,6.375,6.363,6.375   H104.138z"
         stroke-miterlimit="10"
         stroke="url(#SVGID_3_)"
         fill="none"
         opacity="0.05" /></g><text
       id="text34"
       font-size="12"
       font-family="'Corbel'"
       fill="#898989"
       transform="matrix(0.9985 0 0 1 83.9502 13.7782)">OFF</text>
<g
       id="g36"><path
         id="path38"
         d="M62.916,10c0-4.963,4.038-9,9-9c4.962,0,9,4.037,9,9s-4.038,9-9,9C66.954,19,62.916,14.962,62.916,10z    M63.975,10c0,4.379,3.562,7.941,7.941,7.941s7.941-3.562,7.941-7.941c0-4.379-3.562-7.941-7.941-7.941S63.975,5.621,63.975,10z"
         opacity="0.5" /><g
         id="g40"><linearGradient
           gradientTransform="matrix(-1 0 0 1 175.5417 0)"
           y2="2"
           x2="103.6256"
           y1="18"
           x1="103.6256"
           gradientUnits="userSpaceOnUse"
           id="SVGID_4_"><stop
             id="stop43"
             style="stop-color:#FFFFFF"
             offset="0" /><stop
             id="stop45"
             style="stop-color:#FDFDFD"
             offset="0.408" /><stop
             id="stop47"
             style="stop-color:#F4F4F4"
             offset="0.6411" /><stop
             id="stop49"
             style="stop-color:#E6E6E6"
             offset="0.8296" /><stop
             id="stop51"
             style="stop-color:#D3D3D3"
             offset="0.9941" /><stop
             id="stop53"
             style="stop-color:#D2D2D2"
             offset="1" /></linearGradient><circle
           id="circle55"
           r="8"
           cy="10"
           cx="71.916"
           fill="url(#SVGID_4_)" /><ellipse
           id="ellipse57"
           ry="7.194"
           rx="7.187"
           cy="10"
           cx="71.916"
           stroke-miterlimit="10"
           stroke="#FFFFFF"
           fill="none" /></g></g></g></svg>